STARTFONT 2.1
COMMENT 
COMMENT This file has been produced by ttf2bdf written by Subhabrata Biswas
COMMENT 
COMMENT For comments, questions, bug reports, send a mail to
COMMENT                                           subhabrata.biswas@usa.net
COMMENT 
FONT -*-Calibri-Medium-R-Normal--43-320-96-96-c-22--fontspecific
SIZE 32 96 96
FONTBOUNDINGBOX 75 53 -22 -13
STARTPROPERTIES 15
FOUNDRY "Misc"
FAMILY_NAME "Calibri"
WEIGHT_NAME "Medium"
SLANT "R"
SETWIDTH_NAME "Normal"
PIXEL_SIZE 21
POINT_SIZE 320
RESOLUTION_X 96
RESOLUTION_Y 96
SPACING "C"
CHARSET_ENCODING "fontspecific"
FONT_ASCENT 41
FONT_DESCENT 12
DEFAULT_CHAR 1
COPYRIGHT "You may wish to put your copyright here"
ENDPROPERTIES
CHARS 255
STARTCHAR C0001
ENCODING 1
SWIDTH 515 0
DWIDTH 22 0
BBX 20 27 1 0
BITMAP
FFFFF0
FFFFF0
C00030
C00030
C3F030
C7FC30
C61C30
C00E30
C00E30
C00E30
C00E30
C00E30
C01C30
C0FC30
C0F830
C0E030
C0E030
C0E030
C00030
C00030
C0F030
C0F030
C0F030
C00030
C00030
FFFFF0
FFFFF0
ENDCHAR
STARTCHAR C0002
ENCODING 2
SWIDTH 515 0
DWIDTH 22 0
BBX 20 27 1 0
BITMAP
FFFFF0
FFFFF0
C00030
C00030
C3F030
C7FC30
C61C30
C00E30
C00E30
C00E30
C00E30
C00E30
C01C30
C0FC30
C0F830
C0E030
C0E030
C0E030
C00030
C00030
C0F030
C0F030
C0F030
C00030
C00030
FFFFF0
FFFFF0
ENDCHAR
STARTCHAR C0003
ENCODING 3
SWIDTH 515 0
DWIDTH 22 0
BBX 20 27 1 0
BITMAP
FFFFF0
FFFFF0
C00030
C00030
C3F030
C7FC30
C61C30
C00E30
C00E30
C00E30
C00E30
C00E30
C01C30
C0FC30
C0F830
C0E030
C0E030
C0E030
C00030
C00030
C0F030
C0F030
C0F030
C00030
C00030
FFFFF0
FFFFF0
ENDCHAR
STARTCHAR C0004
ENCODING 4
SWIDTH 515 0
DWIDTH 22 0
BBX 20 27 1 0
BITMAP
FFFFF0
FFFFF0
C00030
C00030
C3F030
C7FC30
C61C30
C00E30
C00E30
C00E30
C00E30
C00E30
C01C30
C0FC30
C0F830
C0E030
C0E030
C0E030
C00030
C00030
C0F030
C0F030
C0F030
C00030
C00030
FFFFF0
FFFFF0
ENDCHAR
STARTCHAR C0005
ENCODING 5
SWIDTH 515 0
DWIDTH 22 0
BBX 20 27 1 0
BITMAP
FFFFF0
FFFFF0
C00030
C00030
C3F030
C7FC30
C61C30
C00E30
C00E30
C00E30
C00E30
C00E30
C01C30
C0FC30
C0F830
C0E030
C0E030
C0E030
C00030
C00030
C0F030
C0F030
C0F030
C00030
C00030
FFFFF0
FFFFF0
ENDCHAR
STARTCHAR C0006
ENCODING 6
SWIDTH 515 0
DWIDTH 22 0
BBX 20 27 1 0
BITMAP
FFFFF0
FFFFF0
C00030
C00030
C3F030
C7FC30
C61C30
C00E30
C00E30
C00E30
C00E30
C00E30
C01C30
C0FC30
C0F830
C0E030
C0E030
C0E030
C00030
C00030
C0F030
C0F030
C0F030
C00030
C00030
FFFFF0
FFFFF0
ENDCHAR
STARTCHAR C0007
ENCODING 7
SWIDTH 515 0
DWIDTH 22 0
BBX 20 27 1 0
BITMAP
FFFFF0
FFFFF0
C00030
C00030
C3F030
C7FC30
C61C30
C00E30
C00E30
C00E30
C00E30
C00E30
C01C30
C0FC30
C0F830
C0E030
C0E030
C0E030
C00030
C00030
C0F030
C0F030
C0F030
C00030
C00030
FFFFF0
FFFFF0
ENDCHAR
STARTCHAR C0008
ENCODING 8
SWIDTH 515 0
DWIDTH 22 0
BBX 20 27 1 0
BITMAP
FFFFF0
FFFFF0
C00030
C00030
C3F030
C7FC30
C61C30
C00E30
C00E30
C00E30
C00E30
C00E30
C01C30
C0FC30
C0F830
C0E030
C0E030
C0E030
C00030
C00030
C0F030
C0F030
C0F030
C00030
C00030
FFFFF0
FFFFF0
ENDCHAR
STARTCHAR C0009
ENCODING 9
SWIDTH 515 0
DWIDTH 22 0
BBX 20 27 1 0
BITMAP
FFFFF0
FFFFF0
C00030
C00030
C3F030
C7FC30
C61C30
C00E30
C00E30
C00E30
C00E30
C00E30
C01C30
C0FC30
C0F830
C0E030
C0E030
C0E030
C00030
C00030
C0F030
C0F030
C0F030
C00030
C00030
FFFFF0
FFFFF0
ENDCHAR
STARTCHAR C0010
ENCODING 10
SWIDTH 515 0
DWIDTH 22 0
BBX 20 27 1 0
BITMAP
FFFFF0
FFFFF0
C00030
C00030
C3F030
C7FC30
C61C30
C00E30
C00E30
C00E30
C00E30
C00E30
C01C30
C0FC30
C0F830
C0E030
C0E030
C0E030
C00030
C00030
C0F030
C0F030
C0F030
C00030
C00030
FFFFF0
FFFFF0
ENDCHAR
STARTCHAR C0011
ENCODING 11
SWIDTH 515 0
DWIDTH 22 0
BBX 20 27 1 0
BITMAP
FFFFF0
FFFFF0
C00030
C00030
C3F030
C7FC30
C61C30
C00E30
C00E30
C00E30
C00E30
C00E30
C01C30
C0FC30
C0F830
C0E030
C0E030
C0E030
C00030
C00030
C0F030
C0F030
C0F030
C00030
C00030
FFFFF0
FFFFF0
ENDCHAR
STARTCHAR C0012
ENCODING 12
SWIDTH 515 0
DWIDTH 22 0
BBX 20 27 1 0
BITMAP
FFFFF0
FFFFF0
C00030
C00030
C3F030
C7FC30
C61C30
C00E30
C00E30
C00E30
C00E30
C00E30
C01C30
C0FC30
C0F830
C0E030
C0E030
C0E030
C00030
C00030
C0F030
C0F030
C0F030
C00030
C00030
FFFFF0
FFFFF0
ENDCHAR
STARTCHAR C0013
ENCODING 13
SWIDTH 0 0
DWIDTH 0 0
BBX 1 1 0 -1
BITMAP
00
ENDCHAR
STARTCHAR C0014
ENCODING 14
SWIDTH 515 0
DWIDTH 22 0
BBX 20 27 1 0
BITMAP
FFFFF0
FFFFF0
C00030
C00030
C3F030
C7FC30
C61C30
C00E30
C00E30
C00E30
C00E30
C00E30
C01C30
C0FC30
C0F830
C0E030
C0E030
C0E030
C00030
C00030
C0F030
C0F030
C0F030
C00030
C00030
FFFFF0
FFFFF0
ENDCHAR
STARTCHAR C0015
ENCODING 15
SWIDTH 515 0
DWIDTH 22 0
BBX 20 27 1 0
BITMAP
FFFFF0
FFFFF0
C00030
C00030
C3F030
C7FC30
C61C30
C00E30
C00E30
C00E30
C00E30
C00E30
C01C30
C0FC30
C0F830
C0E030
C0E030
C0E030
C00030
C00030
C0F030
C0F030
C0F030
C00030
C00030
FFFFF0
FFFFF0
ENDCHAR
STARTCHAR C0016
ENCODING 16
SWIDTH 515 0
DWIDTH 22 0
BBX 20 27 1 0
BITMAP
FFFFF0
FFFFF0
C00030
C00030
C3F030
C7FC30
C61C30
C00E30
C00E30
C00E30
C00E30
C00E30
C01C30
C0FC30
C0F830
C0E030
C0E030
C0E030
C00030
C00030
C0F030
C0F030
C0F030
C00030
C00030
FFFFF0
FFFFF0
ENDCHAR
STARTCHAR C0017
ENCODING 17
SWIDTH 515 0
DWIDTH 22 0
BBX 20 27 1 0
BITMAP
FFFFF0
FFFFF0
C00030
C00030
C3F030
C7FC30
C61C30
C00E30
C00E30
C00E30
C00E30
C00E30
C01C30
C0FC30
C0F830
C0E030
C0E030
C0E030
C00030
C00030
C0F030
C0F030
C0F030
C00030
C00030
FFFFF0
FFFFF0
ENDCHAR
STARTCHAR C0018
ENCODING 18
SWIDTH 515 0
DWIDTH 22 0
BBX 20 27 1 0
BITMAP
FFFFF0
FFFFF0
C00030
C00030
C3F030
C7FC30
C61C30
C00E30
C00E30
C00E30
C00E30
C00E30
C01C30
C0FC30
C0F830
C0E030
C0E030
C0E030
C00030
C00030
C0F030
C0F030
C0F030
C00030
C00030
FFFFF0
FFFFF0
ENDCHAR
STARTCHAR C0019
ENCODING 19
SWIDTH 515 0
DWIDTH 22 0
BBX 20 27 1 0
BITMAP
FFFFF0
FFFFF0
C00030
C00030
C3F030
C7FC30
C61C30
C00E30
C00E30
C00E30
C00E30
C00E30
C01C30
C0FC30
C0F830
C0E030
C0E030
C0E030
C00030
C00030
C0F030
C0F030
C0F030
C00030
C00030
FFFFF0
FFFFF0
ENDCHAR
STARTCHAR C0020
ENCODING 20
SWIDTH 515 0
DWIDTH 22 0
BBX 20 27 1 0
BITMAP
FFFFF0
FFFFF0
C00030
C00030
C3F030
C7FC30
C61C30
C00E30
C00E30
C00E30
C00E30
C00E30
C01C30
C0FC30
C0F830
C0E030
C0E030
C0E030
C00030
C00030
C0F030
C0F030
C0F030
C00030
C00030
FFFFF0
FFFFF0
ENDCHAR
STARTCHAR C0021
ENCODING 21
SWIDTH 515 0
DWIDTH 22 0
BBX 20 27 1 0
BITMAP
FFFFF0
FFFFF0
C00030
C00030
C3F030
C7FC30
C61C30
C00E30
C00E30
C00E30
C00E30
C00E30
C01C30
C0FC30
C0F830
C0E030
C0E030
C0E030
C00030
C00030
C0F030
C0F030
C0F030
C00030
C00030
FFFFF0
FFFFF0
ENDCHAR
STARTCHAR C0022
ENCODING 22
SWIDTH 515 0
DWIDTH 22 0
BBX 20 27 1 0
BITMAP
FFFFF0
FFFFF0
C00030
C00030
C3F030
C7FC30
C61C30
C00E30
C00E30
C00E30
C00E30
C00E30
C01C30
C0FC30
C0F830
C0E030
C0E030
C0E030
C00030
C00030
C0F030
C0F030
C0F030
C00030
C00030
FFFFF0
FFFFF0
ENDCHAR
STARTCHAR C0023
ENCODING 23
SWIDTH 515 0
DWIDTH 22 0
BBX 20 27 1 0
BITMAP
FFFFF0
FFFFF0
C00030
C00030
C3F030
C7FC30
C61C30
C00E30
C00E30
C00E30
C00E30
C00E30
C01C30
C0FC30
C0F830
C0E030
C0E030
C0E030
C00030
C00030
C0F030
C0F030
C0F030
C00030
C00030
FFFFF0
FFFFF0
ENDCHAR
STARTCHAR C0024
ENCODING 24
SWIDTH 515 0
DWIDTH 22 0
BBX 20 27 1 0
BITMAP
FFFFF0
FFFFF0
C00030
C00030
C3F030
C7FC30
C61C30
C00E30
C00E30
C00E30
C00E30
C00E30
C01C30
C0FC30
C0F830
C0E030
C0E030
C0E030
C00030
C00030
C0F030
C0F030
C0F030
C00030
C00030
FFFFF0
FFFFF0
ENDCHAR
STARTCHAR C0025
ENCODING 25
SWIDTH 515 0
DWIDTH 22 0
BBX 20 27 1 0
BITMAP
FFFFF0
FFFFF0
C00030
C00030
C3F030
C7FC30
C61C30
C00E30
C00E30
C00E30
C00E30
C00E30
C01C30
C0FC30
C0F830
C0E030
C0E030
C0E030
C00030
C00030
C0F030
C0F030
C0F030
C00030
C00030
FFFFF0
FFFFF0
ENDCHAR
STARTCHAR C0026
ENCODING 26
SWIDTH 515 0
DWIDTH 22 0
BBX 20 27 1 0
BITMAP
FFFFF0
FFFFF0
C00030
C00030
C3F030
C7FC30
C61C30
C00E30
C00E30
C00E30
C00E30
C00E30
C01C30
C0FC30
C0F830
C0E030
C0E030
C0E030
C00030
C00030
C0F030
C0F030
C0F030
C00030
C00030
FFFFF0
FFFFF0
ENDCHAR
STARTCHAR C0027
ENCODING 27
SWIDTH 515 0
DWIDTH 22 0
BBX 20 27 1 0
BITMAP
FFFFF0
FFFFF0
C00030
C00030
C3F030
C7FC30
C61C30
C00E30
C00E30
C00E30
C00E30
C00E30
C01C30
C0FC30
C0F830
C0E030
C0E030
C0E030
C00030
C00030
C0F030
C0F030
C0F030
C00030
C00030
FFFFF0
FFFFF0
ENDCHAR
STARTCHAR C0028
ENCODING 28
SWIDTH 515 0
DWIDTH 22 0
BBX 20 27 1 0
BITMAP
FFFFF0
FFFFF0
C00030
C00030
C3F030
C7FC30
C61C30
C00E30
C00E30
C00E30
C00E30
C00E30
C01C30
C0FC30
C0F830
C0E030
C0E030
C0E030
C00030
C00030
C0F030
C0F030
C0F030
C00030
C00030
FFFFF0
FFFFF0
ENDCHAR
STARTCHAR C0029
ENCODING 29
SWIDTH 515 0
DWIDTH 22 0
BBX 20 27 1 0
BITMAP
FFFFF0
FFFFF0
C00030
C00030
C3F030
C7FC30
C61C30
C00E30
C00E30
C00E30
C00E30
C00E30
C01C30
C0FC30
C0F830
C0E030
C0E030
C0E030
C00030
C00030
C0F030
C0F030
C0F030
C00030
C00030
FFFFF0
FFFFF0
ENDCHAR
STARTCHAR C0030
ENCODING 30
SWIDTH 515 0
DWIDTH 22 0
BBX 20 27 1 0
BITMAP
FFFFF0
FFFFF0
C00030
C00030
C3F030
C7FC30
C61C30
C00E30
C00E30
C00E30
C00E30
C00E30
C01C30
C0FC30
C0F830
C0E030
C0E030
C0E030
C00030
C00030
C0F030
C0F030
C0F030
C00030
C00030
FFFFF0
FFFFF0
ENDCHAR
STARTCHAR C0031
ENCODING 31
SWIDTH 515 0
DWIDTH 22 0
BBX 20 27 1 0
BITMAP
FFFFF0
FFFFF0
C00030
C00030
C3F030
C7FC30
C61C30
C00E30
C00E30
C00E30
C00E30
C00E30
C01C30
C0FC30
C0F830
C0E030
C0E030
C0E030
C00030
C00030
C0F030
C0F030
C0F030
C00030
C00030
FFFFF0
FFFFF0
ENDCHAR
STARTCHAR C0032- 
ENCODING 32
SWIDTH 234 0
DWIDTH 10 0
BBX 1 1 0 -1
BITMAP
00
ENDCHAR
STARTCHAR C0033-!
ENCODING 33
SWIDTH 328 0
DWIDTH 14 0
BBX 4 29 6 0
BITMAP
F0
F0
F0
F0
F0
F0
F0
F0
F0
F0
F0
F0
E0
E0
E0
E0
E0
E0
E0
E0
E0
00
00
00
F0
F0
F0
F0
F0
ENDCHAR
STARTCHAR C0034-"
ENCODING 34
SWIDTH 398 0
DWIDTH 17 0
BBX 11 11 3 18
BITMAP
F1E0
E1E0
E1E0
E0E0
E0E0
E0E0
E0E0
E0E0
E0E0
E0E0
E0C0
ENDCHAR
STARTCHAR C0035-#
ENCODING 35
SWIDTH 492 0
DWIDTH 21 0
BBX 20 27 1 0
BITMAP
070380
070380
070380
070380
070380
070380
070780
7FFFF0
7FFFF0
7FFFF0
0E0700
0E0700
0E0700
0E0700
1E0F00
1C0E00
FFFFC0
FFFFC0
FFFFC0
1C0E00
1C0E00
1C0E00
3C1E00
381C00
381C00
381C00
381C00
ENDCHAR
STARTCHAR C0036-$
ENCODING 36
SWIDTH 515 0
DWIDTH 22 0
BBX 17 37 2 -5
BITMAP
006000
006000
00E000
00E000
00E000
07F800
1FFE00
3FFF00
7C0F00
780300
700000
F00000
F00000
700000
780000
7E0000
3F8000
1FF000
07FC00
00FE00
003F00
000F80
000780
000780
000380
000380
000780
C00F80
F01F00
FFFE00
7FFC00
1FE000
070000
070000
070000
070000
070000
ENDCHAR
STARTCHAR C0037-%
ENCODING 37
SWIDTH 726 0
DWIDTH 31 0
BBX 28 29 1 -1
BITMAP
1F800380
3FC00700
70E00700
70F00E00
E0701C00
E0701C00
E0703800
E0707000
E0707000
E070E000
7061C000
70E3C000
3FC38000
1F870000
000F1F80
000E3FC0
001C70E0
003C70F0
0038E070
0070E070
00E0E070
00E0E070
01C0E070
0380E070
03807060
070070E0
0E003FC0
0E001F80
1C000000
ENDCHAR
STARTCHAR C0038-&
ENCODING 38
SWIDTH 679 0
DWIDTH 29 0
BBX 26 29 2 0
BITMAP
01FC0000
07FF0000
0FFF8000
0F07C000
1E03C000
1E03C000
1C03C000
1E03C000
1E038000
1F078000
0F1F0000
07FE0000
07F80000
03F00000
0FE00E00
1FF00E00
3CF80E00
787C0E00
783E1E00
F01F1C00
F00FBC00
F007FC00
F003F800
7801F800
7801FC00
7E07FE00
3FFF9F80
1FFE07C0
03F80380
ENDCHAR
STARTCHAR C0039-'
ENCODING 39
SWIDTH 210 0
DWIDTH 9 0
BBX 4 11 3 18
BITMAP
F0
F0
E0
E0
E0
E0
E0
E0
E0
E0
E0
ENDCHAR
STARTCHAR C0040-(
ENCODING 40
SWIDTH 304 0
DWIDTH 13 0
BBX 8 37 3 -7
BITMAP
07
0E
0E
1C
1C
3C
38
38
78
78
70
70
70
F0
F0
F0
F0
F0
F0
F0
F0
F0
F0
F0
F0
70
70
78
78
38
38
3C
1C
1C
0E
0E
07
ENDCHAR
STARTCHAR C0041-)
ENCODING 41
SWIDTH 304 0
DWIDTH 13 0
BBX 8 37 2 -7
BITMAP
E0
70
70
38
38
3C
1C
1C
1E
1E
0E
0E
0E
0F
0F
0F
0F
0F
0F
0F
0F
0F
0F
0F
0F
0E
0E
1E
1E
1C
1C
3C
38
38
70
70
E0
ENDCHAR
STARTCHAR C0042-*
ENCODING 42
SWIDTH 492 0
DWIDTH 21 0
BBX 15 16 3 14
BITMAP
0380
0380
0380
638C
739E
FDBE
3FF8
07E0
07E0
3FF8
FDBE
739E
638C
0380
0380
0380
ENDCHAR
STARTCHAR C0043-+
ENCODING 43
SWIDTH 492 0
DWIDTH 21 0
BBX 19 19 1 3
BITMAP
00E000
00E000
00E000
00E000
00E000
00E000
00E000
00E000
7FFFE0
FFFFE0
7FFFE0
00E000
00E000
00E000
00E000
00E000
00E000
00E000
00E000
ENDCHAR
STARTCHAR C0044-,
ENCODING 44
SWIDTH 257 0
DWIDTH 11 0
BBX 7 11 1 -6
BITMAP
1E
1E
1E
1E
1C
3C
38
78
70
E0
E0
ENDCHAR
STARTCHAR C0045--
ENCODING 45
SWIDTH 304 0
DWIDTH 13 0
BBX 10 3 1 9
BITMAP
FFC0
FFC0
FFC0
ENDCHAR
STARTCHAR C0046-.
ENCODING 46
SWIDTH 257 0
DWIDTH 11 0
BBX 5 5 3 0
BITMAP
F0
F0
F8
F0
F0
ENDCHAR
STARTCHAR C0047-/
ENCODING 47
SWIDTH 398 0
DWIDTH 17 0
BBX 16 37 0 -6
BITMAP
0007
0007
000F
000E
000E
001E
001C
003C
003C
0038
0078
0070
0070
00F0
00E0
00E0
01E0
01C0
03C0
03C0
0380
0780
0700
0700
0F00
0E00
0E00
1E00
1C00
3C00
3C00
3800
7800
7000
7000
F000
E000
ENDCHAR
STARTCHAR C0048-0
ENCODING 48
SWIDTH 515 0
DWIDTH 22 0
BBX 19 27 2 0
BITMAP
03F800
0FFE00
1FFF00
3E0F80
3C07C0
7803C0
7803C0
7803E0
F001E0
F001E0
F001E0
F001E0
F001E0
F001E0
F001E0
F001E0
F001E0
F001E0
F001E0
F803C0
7803C0
7803C0
7C0780
3E0F80
1FFF00
0FFE00
03F800
ENDCHAR
STARTCHAR C0049-1
ENCODING 49
SWIDTH 515 0
DWIDTH 22 0
BBX 17 27 3 0
BITMAP
01E000
07E000
0FE000
3FE000
FDE000
F1E000
C1E000
01E000
01E000
01E000
01E000
01E000
01E000
01E000
01E000
01E000
01E000
01E000
01E000
01E000
01E000
01E000
01E000
01E000
7FFF80
7FFF80
7FFF80
ENDCHAR
STARTCHAR C0050-2
ENCODING 50
SWIDTH 515 0
DWIDTH 22 0
BBX 17 27 2 0
BITMAP
07F000
3FF800
7FFE00
783E00
601F00
000F00
000F00
000F00
000F00
000F00
001F00
001E00
003E00
003C00
007800
00F800
01F000
03E000
07C000
0F8000
1F0000
1E0000
3C0000
780000
FFFF80
FFFF80
FFFF80
ENDCHAR
STARTCHAR C0051-3
ENCODING 51
SWIDTH 515 0
DWIDTH 22 0
BBX 17 27 2 0
BITMAP
07F000
3FFC00
7FFE00
783E00
601F00
000F00
000F00
000F00
000F00
001E00
001E00
007C00
1FF800
1FF800
1FFE00
003F00
000F00
000F80
000780
000780
000780
000780
C00F00
F03F00
FFFE00
7FFC00
0FE000
ENDCHAR
STARTCHAR C0052-4
ENCODING 52
SWIDTH 515 0
DWIDTH 22 0
BBX 20 27 1 0
BITMAP
003F00
003F00
007F00
00FF00
00EF00
01EF00
01CF00
038F00
038F00
070F00
0F0F00
0E0F00
1C0F00
1C0F00
380F00
780F00
700F00
F00F00
FFFFF0
FFFFF0
FFFFF0
000F00
000F00
000F00
000F00
000F00
000F00
ENDCHAR
STARTCHAR C0053-5
ENCODING 53
SWIDTH 515 0
DWIDTH 22 0
BBX 17 27 2 0
BITMAP
7FFE00
7FFE00
7FFE00
780000
780000
780000
780000
780000
780000
780000
7FF000
7FFC00
7FFE00
003F00
000F00
000F80
000780
000780
000780
000780
000780
000F00
C01F00
F03E00
FFFC00
7FF800
1FE000
ENDCHAR
STARTCHAR C0054-6
ENCODING 54
SWIDTH 515 0
DWIDTH 22 0
BBX 18 27 2 0
BITMAP
00FE00
07FF80
0FFF80
1F8180
3E0000
3C0000
780000
780000
780000
F00000
F00000
F1FC00
FFFF00
FFFF80
FC0F80
F007C0
F003C0
F003C0
F003C0
F003C0
7803C0
780780
7C0780
3E1F00
3FFF00
1FFC00
07F000
ENDCHAR
STARTCHAR C0055-7
ENCODING 55
SWIDTH 515 0
DWIDTH 22 0
BBX 18 27 2 0
BITMAP
FFFFC0
FFFFC0
FFFFC0
0003C0
000780
000780
000F00
000F00
000E00
001E00
001E00
003C00
003C00
007800
007800
00F000
00F000
01E000
01E000
01E000
03C000
03C000
078000
078000
0F0000
0F0000
1E0000
ENDCHAR
STARTCHAR C0056-8
ENCODING 56
SWIDTH 515 0
DWIDTH 22 0
BBX 18 27 2 0
BITMAP
03F800
0FFE00
3FFF00
3E1F00
7C0F80
780780
780780
780780
780780
3C0F00
3E1E00
1FFC00
07F800
03F800
0FFE00
3E3F00
7C0F80
780780
F003C0
F003C0
F003C0
F003C0
F807C0
7C0F80
7FFF00
1FFE00
07F800
ENDCHAR
STARTCHAR C0057-9
ENCODING 57
SWIDTH 515 0
DWIDTH 22 0
BBX 18 27 2 0
BITMAP
03F000
1FFC00
3FFE00
7E1F00
780F80
F80780
F00780
F003C0
F003C0
F003C0
F003C0
F803C0
7C0FC0
7FFFC0
3FFFC0
0FE3C0
0003C0
0003C0
000780
000780
000780
000F00
001F00
607E00
7FFC00
7FF800
1FC000
ENDCHAR
STARTCHAR C0058-:
ENCODING 58
SWIDTH 281 0
DWIDTH 12 0
BBX 5 20 4 0
BITMAP
70
F8
F8
F8
70
00
00
00
00
00
00
00
00
00
00
70
F8
F8
F8
70
ENDCHAR
STARTCHAR C0059-;
ENCODING 59
SWIDTH 281 0
DWIDTH 12 0
BBX 8 25 1 -6
BITMAP
0E
1F
1F
1F
0E
00
00
00
00
00
00
00
00
00
1E
1E
1E
1E
1E
3C
38
78
70
E0
E0
ENDCHAR
STARTCHAR C0060-<
ENCODING 60
SWIDTH 492 0
DWIDTH 21 0
BBX 18 20 1 2
BITMAP
0000C0
0003C0
0007C0
001F80
007E00
01F800
07E000
1F8000
7E0000
F80000
F80000
7E0000
1F8000
07E000
01F800
007E00
001F80
0007C0
0003C0
0000C0
ENDCHAR
STARTCHAR C0061-=
ENCODING 61
SWIDTH 492 0
DWIDTH 21 0
BBX 17 11 2 7
BITMAP
FFFF80
FFFF80
FFFF80
000000
000000
000000
000000
000000
FFFF80
FFFF80
FFFF80
ENDCHAR
STARTCHAR C0062->
ENCODING 62
SWIDTH 492 0
DWIDTH 21 0
BBX 18 20 2 2
BITMAP
C00000
F00000
FC0000
3F0000
0FC000
03F000
00FC00
003F00
000FC0
0003C0
0007C0
001FC0
007F00
00FC00
03F000
0FC000
3F0000
FC0000
F00000
C00000
ENDCHAR
STARTCHAR C0063-?
ENCODING 63
SWIDTH 468 0
DWIDTH 20 0
BBX 16 29 2 0
BITMAP
1FE0
7FF8
FFFC
F07E
C01E
001F
000F
000F
000F
000F
000F
001E
003C
07F8
07F0
0780
0780
0780
0780
0780
0780
0000
0000
0000
0780
0780
0780
0780
0780
ENDCHAR
STARTCHAR C0064-@
ENCODING 64
SWIDTH 890 0
DWIDTH 38 0
BBX 31 33 4 -5
BITMAP
0007FE00
003FFF80
00FFFFE0
01F803F0
07E000F8
0780007C
0F00003C
1E00001C
1C0F8E1E
3C1FCE0E
383FFC0E
78787C0E
70F03C0E
70E03C0E
70E03C0E
F1E0381E
E1C0381C
E1C0381C
E1C0783C
E1C0F838
E1E1F878
E1FFBFF0
E0FF1FE0
F07C0F80
70000000
70000000
78000000
3C000000
3E000000
1FC01C00
0FFFFC00
03FFFC00
007FF000
ENDCHAR
STARTCHAR C0065-A
ENCODING 65
SWIDTH 585 0
DWIDTH 25 0
BBX 23 27 1 0
BITMAP
007C00
007C00
00FC00
00FE00
00FE00
01EF00
01CF00
01C700
03C780
038780
078380
0783C0
0703C0
0F01C0
0E01E0
0E01E0
1E00F0
1FFFF0
1FFFF0
3FFFF8
380078
780038
78003C
70003C
F0001E
F0001E
E0001E
ENDCHAR
STARTCHAR C0066-B
ENCODING 66
SWIDTH 539 0
DWIDTH 23 0
BBX 18 27 4 0
BITMAP
FFE000
FFF800
FFFE00
F03E00
F01F00
F00F00
F00F00
F00F00
F00F00
F00F00
F01E00
F03C00
FFF800
FFFC00
FFFF00
F01F80
F00780
F003C0
F003C0
F003C0
F003C0
F003C0
F00780
F00F80
FFFF00
FFFE00
FFF000
ENDCHAR
STARTCHAR C0067-C
ENCODING 67
SWIDTH 539 0
DWIDTH 23 0
BBX 20 27 2 0
BITMAP
00FE00
03FFC0
07FFE0
0F81F0
1F0070
3C0030
3C0000
780000
780000
F00000
F00000
F00000
F00000
F00000
F00000
F00000
F00000
F00000
780000
780000
7C0000
3C0010
3E0070
1F81F0
0FFFE0
03FFC0
00FE00
ENDCHAR
STARTCHAR C0068-D
ENCODING 68
SWIDTH 609 0
DWIDTH 26 0
BBX 21 27 4 0
BITMAP
FFF000
FFFE00
FFFF00
F01FC0
F007C0
F003E0
F001F0
F000F0
F000F0
F00078
F00078
F00078
F00078
F00078
F00078
F00078
F00078
F00078
F000F0
F000F0
F001F0
F001E0
F007C0
F01FC0
FFFF00
FFFE00
FFF000
ENDCHAR
STARTCHAR C0069-E
ENCODING 69
SWIDTH 492 0
DWIDTH 21 0
BBX 15 27 4 0
BITMAP
FFFE
FFFE
FFFE
F000
F000
F000
F000
F000
F000
F000
F000
FFF8
FFF8
FFF8
F000
F000
F000
F000
F000
F000
F000
F000
F000
F000
FFFE
FFFE
FFFE
ENDCHAR
STARTCHAR C0070-F
ENCODING 70
SWIDTH 468 0
DWIDTH 20 0
BBX 14 27 4 0
BITMAP
FFFC
FFFC
FFFC
F000
F000
F000
F000
F000
F000
F000
F000
F000
FFF8
FFF8
FFF8
F000
F000
F000
F000
F000
F000
F000
F000
F000
F000
F000
F000
ENDCHAR
STARTCHAR C0071-G
ENCODING 71
SWIDTH 632 0
DWIDTH 27 0
BBX 22 27 2 0
BITMAP
007F80
01FFF0
07FFF8
0FC07C
1F001C
3E000C
3C0000
780000
780000
780000
F00000
F00000
F00FFC
F00FFC
F00FFC
F0003C
F0003C
F8003C
78003C
78003C
7C003C
3E003C
1F003C
0FC0FC
07FFFC
03FFF0
007F80
ENDCHAR
STARTCHAR C0072-H
ENCODING 72
SWIDTH 632 0
DWIDTH 27 0
BBX 20 27 4 0
BITMAP
F000F0
F000F0
F000F0
F000F0
F000F0
F000F0
F000F0
F000F0
F000F0
F000F0
F000F0
FFFFF0
FFFFF0
FFFFF0
F000F0
F000F0
F000F0
F000F0
F000F0
F000F0
F000F0
F000F0
F000F0
F000F0
F000F0
F000F0
F000F0
ENDCHAR
STARTCHAR C0073-I
ENCODING 73
SWIDTH 257 0
DWIDTH 11 0
BBX 4 27 4 0
BITMAP
F0
F0
F0
F0
F0
F0
F0
F0
F0
F0
F0
F0
F0
F0
F0
F0
F0
F0
F0
F0
F0
F0
F0
F0
F0
F0
F0
ENDCHAR
STARTCHAR C0074-J
ENCODING 74
SWIDTH 328 0
DWIDTH 14 0
BBX 11 27 0 0
BITMAP
01E0
01E0
01E0
01E0
01E0
01E0
01E0
01E0
01E0
01E0
01E0
01E0
01E0
01E0
01E0
01E0
01E0
01E0
01E0
01E0
01E0
01E0
01E0
C3C0
FFC0
FF80
3F00
ENDCHAR
STARTCHAR C0075-K
ENCODING 75
SWIDTH 515 0
DWIDTH 22 0
BBX 18 27 4 0
BITMAP
F003C0
F00780
F00F00
F01F00
F01E00
F03C00
F07800
F0F000
F1E000
F3C000
F3C000
F78000
FF0000
FF8000
F78000
F3C000
F1E000
F1F000
F0F000
F07800
F03C00
F03E00
F01F00
F00F00
F00780
F007C0
F003C0
ENDCHAR
STARTCHAR C0076-L
ENCODING 76
SWIDTH 421 0
DWIDTH 18 0
BBX 14 27 4 0
BITMAP
F000
F000
F000
F000
F000
F000
F000
F000
F000
F000
F000
F000
F000
F000
F000
F000
F000
F000
F000
F000
F000
F000
F000
F000
FFFC
FFFC
FFFC
ENDCHAR
STARTCHAR C0077-M
ENCODING 77
SWIDTH 867 0
DWIDTH 37 0
BBX 30 27 4 0
BITMAP
FC0000FC
FE0001FC
FE0001FC
FF0003FC
F70003BC
F78003BC
F78007BC
F380073C
F3C00F3C
F1C00E3C
F1E00E3C
F1E01E3C
F0E01C3C
F0F03C3C
F0F0383C
F078383C
F078783C
F038703C
F03CF03C
F03CE03C
F01EE03C
F01FE03C
F00FC03C
F00FC03C
F00F803C
F007803C
F007803C
ENDCHAR
STARTCHAR C0078-N
ENCODING 78
SWIDTH 656 0
DWIDTH 28 0
BBX 21 27 4 0
BITMAP
FC0078
FC0078
FE0078
FF0078
FF0078
F78078
F78078
F3C078
F3C078
F1E078
F1E078
F0F078
F0F078
F07878
F07878
F03C78
F03C78
F01E78
F01E78
F00F78
F00778
F007F8
F003F8
F003F8
F001F8
F001F8
F000F8
ENDCHAR
STARTCHAR C0079-O
ENCODING 79
SWIDTH 656 0
DWIDTH 28 0
BBX 24 27 2 0
BITMAP
00FF00
03FFE0
0FFFF0
1F81F8
3E007C
3C003C
7C001E
78001E
78001F
F0000F
F0000F
F0000F
F0000F
F0000F
F0000F
F0000F
F0000F
F0000F
F8001E
78001E
78003E
3C003C
3E007C
1F81F8
0FFFF0
07FFC0
00FF00
ENDCHAR
STARTCHAR C0080-P
ENCODING 80
SWIDTH 515 0
DWIDTH 22 0
BBX 17 27 4 0
BITMAP
FFE000
FFFC00
FFFE00
F03F00
F00F00
F00F80
F00780
F00780
F00780
F00780
F00780
F00F00
F01F00
F03E00
FFFE00
FFF800
FFE000
F00000
F00000
F00000
F00000
F00000
F00000
F00000
F00000
F00000
F00000
ENDCHAR
STARTCHAR C0081-Q
ENCODING 81
SWIDTH 679 0
DWIDTH 29 0
BBX 27 31 2 -4
BITMAP
00FF0000
03FFE000
0FFFF000
1F81F800
3E007C00
3C003C00
7C001E00
78001E00
78001F00
F0000F00
F0000F00
F0000F00
F0000F00
F0000F00
F0000F00
F0000F00
F0000F00
F0000F00
F8001E00
78001E00
78003E00
3C003C00
3E007C00
1F81F800
0FFFF800
07FFFE00
00FF1F00
00000F80
000007E0
000001E0
00000060
ENDCHAR
STARTCHAR C0082-R
ENCODING 82
SWIDTH 539 0
DWIDTH 23 0
BBX 19 27 4 0
BITMAP
FFF000
FFFC00
FFFE00
F01F00
F00F80
F00780
F00780
F00780
F00780
F00780
F00F00
F03F00
FFFC00
FFF800
FFF800
F07C00
F03C00
F01E00
F00E00
F00F00
F00F00
F00780
F00780
F003C0
F003C0
F003C0
F001E0
ENDCHAR
STARTCHAR C0083-S
ENCODING 83
SWIDTH 468 0
DWIDTH 20 0
BBX 17 27 1 0
BITMAP
03F000
0FFC00
1FFE00
3E0E00
7C0200
780000
780000
780000
7C0000
7C0000
3F0000
1FC000
0FF000
03FC00
00FE00
003F00
001F00
000F80
000780
000780
000780
000780
C00F00
F03F00
FFFE00
7FFC00
0FE000
ENDCHAR
STARTCHAR C0084-T
ENCODING 84
SWIDTH 492 0
DWIDTH 21 0
BBX 20 27 1 0
BITMAP
FFFFF0
FFFFF0
FFFFF0
00F000
00F000
00F000
00F000
00F000
00F000
00F000
00F000
00F000
00F000
00F000
00F000
00F000
00F000
00F000
00F000
00F000
00F000
00F000
00F000
00F000
00F000
00F000
00F000
ENDCHAR
STARTCHAR C0085-U
ENCODING 85
SWIDTH 656 0
DWIDTH 28 0
BBX 20 27 4 0
BITMAP
F000F0
F000F0
F000F0
F000F0
F000F0
F000F0
F000F0
F000F0
F000F0
F000F0
F000F0
F000F0
F000F0
F000F0
F000F0
F000F0
F000F0
F000F0
F000F0
F000F0
F801F0
7801E0
7C03E0
3E07C0
1FFF80
0FFF00
03FC00
ENDCHAR
STARTCHAR C0086-V
ENCODING 86
SWIDTH 562 0
DWIDTH 24 0
BBX 23 27 0 0
BITMAP
F0000E
70001E
78001E
78001C
3C003C
3C003C
3C0038
1E0078
1E0078
1E0070
0F00F0
0F00E0
0700E0
0781E0
0781C0
0381C0
03C3C0
03C380
01C380
01E780
01E700
00E700
00FF00
00FE00
007E00
007C00
003C00
ENDCHAR
STARTCHAR C0087-W
ENCODING 87
SWIDTH 890 0
DWIDTH 38 0
BBX 36 27 1 0
BITMAP
F000F000F0
F000F000F0
7800F800F0
7801F800E0
7801F801E0
3801F801E0
3C01FC01C0
3C03BC01C0
3C039C03C0
1C039C0380
1E039E0380
1E070E0780
0E070E0780
0F070F0700
0F0F0F0700
070E070F00
070E070E00
078E078E00
079E078E00
039C039E00
039C03DC00
03DC03DC00
01FC01DC00
01F801F800
01F801F800
01F801F800
00F000F000
ENDCHAR
STARTCHAR C0088-X
ENCODING 88
SWIDTH 515 0
DWIDTH 22 0
BBX 20 27 1 0
BITMAP
F000F0
7800F0
7C01E0
3C03C0
1E03C0
1E0780
0F0780
0F0F00
078E00
03DE00
03FC00
01FC00
01F800
00F800
01F800
03FC00
03DE00
079E00
078F00
0F0F00
1E0780
1E0780
3C03C0
3C01E0
7801E0
F000F0
F000F0
ENDCHAR
STARTCHAR C0089-Y
ENCODING 89
SWIDTH 492 0
DWIDTH 21 0
BBX 20 27 1 0
BITMAP
F000F0
F000F0
7801E0
7801E0
3C03C0
3C03C0
1E0780
1E0780
0F0F00
0F0F00
079E00
079E00
03FC00
03FC00
01F800
01F800
00F000
00F000
00F000
00F000
00F000
00F000
00F000
00F000
00F000
00F000
00F000
ENDCHAR
STARTCHAR C0090-Z
ENCODING 90
SWIDTH 468 0
DWIDTH 20 0
BBX 18 27 1 0
BITMAP
7FFF80
7FFFC0
7FFFC0
000780
000780
000F00
001E00
001E00
003C00
003C00
007800
00F000
00F000
01E000
03C000
03C000
078000
0F0000
0F0000
1E0000
3C0000
3C0000
780000
780000
FFFFC0
FFFFC0
FFFFC0
ENDCHAR
STARTCHAR C0091-[
ENCODING 91
SWIDTH 304 0
DWIDTH 13 0
BBX 7 36 4 -7
BITMAP
FE
FE
FE
E0
E0
E0
E0
E0
E0
E0
E0
E0
E0
E0
E0
E0
E0
E0
E0
E0
E0
E0
E0
E0
E0
E0
E0
E0
E0
E0
E0
E0
E0
FE
FE
FE
ENDCHAR
STARTCHAR C0092-\
ENCODING 92
SWIDTH 398 0
DWIDTH 17 0
BBX 17 37 0 -6
BITMAP
F00000
700000
700000
780000
380000
380000
3C0000
1C0000
1E0000
1E0000
0E0000
0F0000
0F0000
070000
078000
038000
038000
03C000
01C000
01E000
01E000
00E000
00F000
00F000
007000
007800
003800
003800
003C00
001C00
001C00
001E00
000E00
000F00
000F00
000700
000780
ENDCHAR
STARTCHAR C0093-]
ENCODING 93
SWIDTH 304 0
DWIDTH 13 0
BBX 7 36 2 -7
BITMAP
FE
FE
FE
0E
0E
0E
0E
0E
0E
0E
0E
0E
0E
0E
0E
0E
0E
0E
0E
0E
0E
0E
0E
0E
0E
0E
0E
0E
0E
0E
0E
0E
0E
FE
FE
FE
ENDCHAR
STARTCHAR C0094-^
ENCODING 94
SWIDTH 492 0
DWIDTH 21 0
BBX 17 16 2 11
BITMAP
01E000
03E000
03F000
077000
077000
0F7800
0E3800
0E3C00
1C1C00
1C1E00
3C1E00
380E00
780F00
780700
700780
F00780
ENDCHAR
STARTCHAR C0095-_
ENCODING 95
SWIDTH 492 0
DWIDTH 21 0
BBX 22 3 0 -7
BITMAP
FFFFFC
FFFFFC
FFFFFC
ENDCHAR
STARTCHAR C0096-`
ENCODING 96
SWIDTH 304 0
DWIDTH 13 0
BBX 7 7 3 23
BITMAP
F0
F0
78
38
1C
1E
0E
ENDCHAR
STARTCHAR C0097-a
ENCODING 97
SWIDTH 492 0
DWIDTH 21 0
BBX 16 20 2 0
BITMAP
07F0
1FFC
7FFE
783E
601F
000F
000F
000F
07FF
1FFF
7FFF
7C0F
F80F
F00F
F00F
F01F
F87F
7FFF
3FE7
0F87
ENDCHAR
STARTCHAR C0098-b
ENCODING 98
SWIDTH 539 0
DWIDTH 23 0
BBX 17 29 3 0
BITMAP
F00000
F00000
F00000
F00000
F00000
F00000
F00000
F00000
F00000
F1F800
F3FC00
FFFE00
FE1F00
FC0F00
F80F00
F00780
F00780
F00780
F00780
F00780
F00780
F00780
F00780
F80F00
FC0F00
FE1F00
FFFE00
F7FC00
F1F000
ENDCHAR
STARTCHAR C0099-c
ENCODING 99
SWIDTH 421 0
DWIDTH 18 0
BBX 15 20 2 0
BITMAP
03F0
0FFC
1FFE
3E0E
7C06
7800
F000
F000
F000
F000
F000
F000
F000
F000
7800
7C06
7E0E
3FFE
1FFC
07F0
ENDCHAR
STARTCHAR C0100-d
ENCODING 100
SWIDTH 539 0
DWIDTH 23 0
BBX 17 29 2 0
BITMAP
000780
000780
000780
000780
000780
000780
000780
000780
000780
07C780
1FF780
3FFF80
7C3F80
781F80
780F80
F00780
F00780
F00780
F00780
F00780
F00780
F00780
F00780
780F80
781F80
7C3F80
3FFF80
1FF780
0FC780
ENDCHAR
STARTCHAR C0101-e
ENCODING 101
SWIDTH 492 0
DWIDTH 21 0
BBX 17 20 2 0
BITMAP
03F000
0FFC00
1FFE00
3C1F00
780F00
780780
F00780
F00780
FFFF80
FFFF80
FFFF80
F00000
F00000
F00000
780000
780000
3E0300
3FFF00
1FFF00
03FC00
ENDCHAR
STARTCHAR C0102-f
ENCODING 102
SWIDTH 304 0
DWIDTH 13 0
BBX 13 29 1 0
BITMAP
03F0
07F8
0FF8
0F08
1E00
1E00
1E00
1E00
1E00
FFF0
FFF0
FFF0
1E00
1E00
1E00
1E00
1E00
1E00
1E00
1E00
1E00
1E00
1E00
1E00
1E00
1E00
1E00
1E00
1E00
ENDCHAR
STARTCHAR C0103-g
ENCODING 103
SWIDTH 468 0
DWIDTH 20 0
BBX 18 27 1 -7
BITMAP
07FFC0
1FFFC0
3FFFC0
3C1E00
780F00
700700
700700
700700
780F00
3C1E00
3FFE00
3FFC00
73F000
700000
700000
780000
3FFC00
1FFF00
3FFF80
7807C0
E001C0
E001C0
E003C0
F80780
7FFF80
3FFE00
0FF800
ENDCHAR
STARTCHAR C0104-h
ENCODING 104
SWIDTH 539 0
DWIDTH 23 0
BBX 16 29 3 0
BITMAP
F000
F000
F000
F000
F000
F000
F000
F000
F000
F1F0
F3FC
F7FE
FE3E
FC1F
F80F
F00F
F00F
F00F
F00F
F00F
F00F
F00F
F00F
F00F
F00F
F00F
F00F
F00F
F00F
ENDCHAR
STARTCHAR C0105-i
ENCODING 105
SWIDTH 234 0
DWIDTH 10 0
BBX 4 28 3 0
BITMAP
F0
F0
F0
F0
00
00
00
00
F0
F0
F0
F0
F0
F0
F0
F0
F0
F0
F0
F0
F0
F0
F0
F0
F0
F0
F0
F0
ENDCHAR
STARTCHAR C0106-j
ENCODING 106
SWIDTH 234 0
DWIDTH 10 0
BBX 9 35 -1 -7
BITMAP
0780
0780
0780
0780
0000
0000
0000
0000
0780
0780
0780
0780
0780
0780
0780
0780
0780
0780
0780
0780
0780
0780
0780
0780
0780
0780
0780
0780
0780
0780
0780
0F80
FF00
FE00
FC00
ENDCHAR
STARTCHAR C0107-k
ENCODING 107
SWIDTH 468 0
DWIDTH 20 0
BBX 16 29 3 0
BITMAP
F000
F000
F000
F000
F000
F000
F000
F000
F000
F01E
F03E
F07C
F0F8
F0F0
F1E0
F3C0
F780
FF00
FF80
F7C0
F3C0
F1E0
F1F0
F0F8
F078
F03C
F01E
F01F
F00F
ENDCHAR
STARTCHAR C0108-l
ENCODING 108
SWIDTH 234 0
DWIDTH 10 0
BBX 4 29 3 0
BITMAP
F0
F0
F0
F0
F0
F0
F0
F0
F0
F0
F0
F0
F0
F0
F0
F0
F0
F0
F0
F0
F0
F0
F0
F0
F0
F0
F0
F0
F0
ENDCHAR
STARTCHAR C0109-m
ENCODING 109
SWIDTH 796 0
DWIDTH 34 0
BBX 28 20 3 0
BITMAP
F1F01F00
F7FC7FC0
FFFEFFE0
FE3FE3E0
FC1FC1F0
F80F80F0
F00F00F0
F00F00F0
F00F00F0
F00F00F0
F00F00F0
F00F00F0
F00F00F0
F00F00F0
F00F00F0
F00F00F0
F00F00F0
F00F00F0
F00F00F0
F00F00F0
ENDCHAR
STARTCHAR C0110-n
ENCODING 110
SWIDTH 539 0
DWIDTH 23 0
BBX 16 20 3 0
BITMAP
F1F0
F7FC
FFFE
FE3E
FC1F
F80F
F00F
F00F
F00F
F00F
F00F
F00F
F00F
F00F
F00F
F00F
F00F
F00F
F00F
F00F
ENDCHAR
STARTCHAR C0111-o
ENCODING 111
SWIDTH 539 0
DWIDTH 23 0
BBX 19 20 2 0
BITMAP
03F800
0FFE00
1FFF80
3E0F80
7C07C0
7803C0
F801E0
F001E0
F001E0
F001E0
F001E0
F001E0
F001E0
F003E0
7803C0
7C07C0
3E0F80
3FFF00
0FFE00
03F800
ENDCHAR
STARTCHAR C0112-p
ENCODING 112
SWIDTH 539 0
DWIDTH 23 0
BBX 17 27 3 -7
BITMAP
E1F800
F3FC00
FFFE00
FE1F00
FC0F00
F80F00
F00780
F00780
F00780
F00780
F00780
F00780
F00780
F00780
F80F00
FC0F00
FE1F00
FFFE00
F7FC00
F1F000
F00000
F00000
F00000
F00000
F00000
F00000
F00000
ENDCHAR
STARTCHAR C0113-q
ENCODING 113
SWIDTH 539 0
DWIDTH 23 0
BBX 17 27 2 -7
BITMAP
07C780
1FF780
3FFF80
7C3F80
781F80
780F80
F00780
F00780
F00780
F00780
F00780
F00780
F00780
F00780
780F80
781F80
7C3F80
3FF780
1FE780
0FC780
000780
000780
000780
000780
000780
000780
000780
ENDCHAR
STARTCHAR C0114-r
ENCODING 114
SWIDTH 351 0
DWIDTH 15 0
BBX 11 20 3 0
BITMAP
F3E0
F7E0
FFE0
FE20
FC00
F800
F000
F000
F000
F000
F000
F000
F000
F000
F000
F000
F000
F000
F000
F000
ENDCHAR
STARTCHAR C0115-s
ENCODING 115
SWIDTH 398 0
DWIDTH 17 0
BBX 13 20 2 0
BITMAP
0FE0
3FF0
7FF0
F830
F000
F000
F000
F800
7F00
3FC0
0FE0
03F0
00F8
0078
0078
8078
E0F8
FFF0
7FE0
1F80
ENDCHAR
STARTCHAR C0116-t
ENCODING 116
SWIDTH 328 0
DWIDTH 14 0
BBX 12 25 1 0
BITMAP
1E00
1E00
1E00
1E00
1E00
FFF0
FFF0
FFF0
1E00
1E00
1E00
1E00
1E00
1E00
1E00
1E00
1E00
1E00
1E00
1E00
1E00
1F10
0FF0
0FF0
03E0
ENDCHAR
STARTCHAR C0117-u
ENCODING 117
SWIDTH 539 0
DWIDTH 23 0
BBX 16 20 3 0
BITMAP
F00F
F00F
F00F
F00F
F00F
F00F
F00F
F00F
F00F
F00F
F00F
F00F
F00F
F00F
F01F
F83F
7C7F
7FFF
3FEF
0F8F
ENDCHAR
STARTCHAR C0118-v
ENCODING 118
SWIDTH 445 0
DWIDTH 19 0
BBX 18 20 1 0
BITMAP
E003C0
F003C0
F00380
780780
780780
380700
3C0F00
3C0F00
1C0E00
1E1E00
1E1C00
0E1C00
0F3C00
0F3800
073800
07F800
03F000
03F000
03F000
01E000
ENDCHAR
STARTCHAR C0119-w
ENCODING 119
SWIDTH 726 0
DWIDTH 31 0
BBX 28 20 1 0
BITMAP
E00F0070
F00F0070
F00F00F0
700F80F0
781F80E0
781F81E0
381FC1E0
3C3FC1C0
3C39C1C0
1C39C3C0
1C39E380
1E70E380
0E70E780
0E70F700
0F707700
0FE07F00
07E07E00
07E07E00
07E03E00
03C03E00
ENDCHAR
STARTCHAR C0120-x
ENCODING 120
SWIDTH 445 0
DWIDTH 19 0
BBX 17 20 1 0
BITMAP
F00700
780F00
781E00
3C1C00
3C3C00
1E3800
0F7800
0FF000
07E000
03E000
07E000
07F000
0FF000
1E7800
1C3C00
3C3C00
781E00
781E00
F00F00
E00780
ENDCHAR
STARTCHAR C0121-y
ENCODING 121
SWIDTH 445 0
DWIDTH 19 0
BBX 18 27 1 -7
BITMAP
E003C0
F003C0
F00380
700780
780700
780700
3C0F00
3C0E00
1C1E00
1E1E00
1E1C00
0E3C00
0F3C00
0F3800
077800
07F000
03F000
03F000
03E000
01E000
01E000
01C000
03C000
038000
078000
078000
070000
ENDCHAR
STARTCHAR C0122-z
ENCODING 122
SWIDTH 398 0
DWIDTH 17 0
BBX 13 20 2 0
BITMAP
FFF0
FFF0
FFF0
0070
00F0
01E0
01C0
03C0
0780
0700
0F00
1E00
1C00
3C00
3800
7800
F000
FFF8
FFF8
FFF8
ENDCHAR
STARTCHAR C0123-{
ENCODING 123
SWIDTH 328 0
DWIDTH 14 0
BBX 10 37 2 -7
BITMAP
03C0
07C0
0FC0
0E00
0E00
0E00
0E00
0E00
0E00
0E00
0E00
0E00
1E00
1E00
1C00
3C00
F800
E000
F800
3C00
1C00
1C00
1E00
0E00
0E00
0E00
0E00
0E00
0E00
0E00
0E00
0E00
0E00
0E00
0FC0
07C0
03C0
ENDCHAR
STARTCHAR C0124-|
ENCODING 124
SWIDTH 468 0
DWIDTH 20 0
BBX 4 37 8 -7
BITMAP
F0
F0
F0
F0
F0
F0
F0
F0
F0
F0
F0
F0
F0
F0
F0
F0
F0
F0
F0
F0
F0
F0
F0
F0
F0
F0
F0
F0
F0
F0
F0
F0
F0
F0
F0
F0
F0
ENDCHAR
STARTCHAR C0125-}
ENCODING 125
SWIDTH 328 0
DWIDTH 14 0
BBX 11 37 2 -7
BITMAP
7800
FC00
7E00
1E00
0E00
0E00
0E00
0E00
0E00
0E00
0E00
0E00
0E00
0E00
0F00
0780
07E0
00E0
03E0
0780
0700
0F00
0E00
0E00
0E00
0E00
0E00
0E00
0E00
0E00
0E00
0E00
0E00
1E00
7E00
FC00
7800
ENDCHAR
STARTCHAR C0126-~
ENCODING 126
SWIDTH 492 0
DWIDTH 21 0
BBX 19 8 1 16
BITMAP
1F0000
7F80E0
7FC0E0
F1E0E0
E0F1E0
E07FC0
E03F80
001F00
ENDCHAR
STARTCHAR C0127
ENCODING 127
SWIDTH 515 0
DWIDTH 22 0
BBX 20 27 1 0
BITMAP
FFFFF0
FFFFF0
C00030
C00030
C3F030
C7FC30
C61C30
C00E30
C00E30
C00E30
C00E30
C00E30
C01C30
C0FC30
C0F830
C0E030
C0E030
C0E030
C00030
C00030
C0F030
C0F030
C0F030
C00030
C00030
FFFFF0
FFFFF0
ENDCHAR
STARTCHAR C0128
ENCODING 128
SWIDTH 515 0
DWIDTH 22 0
BBX 20 27 1 0
BITMAP
003F80
00FFE0
01FFF0
03E0F0
07C030
0F8000
0F0000
0F0000
1F0000
FFFC00
FFFC00
FFFC00
1E0000
1E0000
1E0000
FFFC00
FFFC00
FFFC00
1E0000
0F0000
0F0000
0F8000
078010
07E070
03FFF0
00FFE0
003F80
ENDCHAR
STARTCHAR C0129
ENCODING 129
SWIDTH 515 0
DWIDTH 22 0
BBX 20 27 1 0
BITMAP
FFFFF0
FFFFF0
C00030
C00030
C3F030
C7FC30
C61C30
C00E30
C00E30
C00E30
C00E30
C00E30
C01C30
C0FC30
C0F830
C0E030
C0E030
C0E030
C00030
C00030
C0F030
C0F030
C0F030
C00030
C00030
FFFFF0
FFFFF0
ENDCHAR
STARTCHAR C0130
ENCODING 130
SWIDTH 257 0
DWIDTH 11 0
BBX 7 11 1 -6
BITMAP
1E
1E
1E
1E
1C
3C
38
78
70
E0
E0
ENDCHAR
STARTCHAR C0131
ENCODING 131
SWIDTH 304 0
DWIDTH 13 0
BBX 15 36 -1 -7
BITMAP
00FC
01FE
03FE
03C2
0780
0780
0780
0780
0780
3FFC
3FFC
3FFC
0780
0780
0780
0780
0780
0780
0780
0780
0780
0780
0780
0780
0780
0780
0780
0780
0780
0780
0780
0780
0F80
FF00
FE00
FC00
ENDCHAR
STARTCHAR C0132
ENCODING 132
SWIDTH 421 0
DWIDTH 18 0
BBX 14 11 1 -6
BITMAP
1C1C
1E3C
1E3C
1C3C
1C3C
3C38
3878
7070
70E0
E0E0
C1C0
ENDCHAR
STARTCHAR C0133
ENCODING 133
SWIDTH 703 0
DWIDTH 30 0
BBX 24 5 3 0
BITMAP
701C0E
F83E1F
F83E1F
F83E1F
701C0E
ENDCHAR
STARTCHAR C0134
ENCODING 134
SWIDTH 492 0
DWIDTH 21 0
BBX 17 25 2 4
BITMAP
01E000
01E000
01E000
01C000
01C000
01C000
01C000
7FFF80
7FFF80
7FFF80
01C000
01C000
01C000
01E000
01E000
01E000
01E000
01E000
01E000
01C000
01C000
01C000
01C000
01C000
00C000
ENDCHAR
STARTCHAR C0135
ENCODING 135
SWIDTH 492 0
DWIDTH 21 0
BBX 16 29 3 0
BITMAP
03C0
03C0
0380
0380
0380
0380
0380
FFFF
FFFF
FFFF
0380
0380
03C0
03C0
03C0
03C0
03C0
0380
0380
FFFF
FFFF
FFFF
0380
0380
0380
0380
0380
03C0
03C0
ENDCHAR
STARTCHAR C0136
ENCODING 136
SWIDTH 398 0
DWIDTH 17 0
BBX 11 7 3 23
BITMAP
0E00
1F00
1B00
3B80
71C0
71C0
E0E0
ENDCHAR
STARTCHAR C0137
ENCODING 137
SWIDTH 1054 0
DWIDTH 45 0
BBX 42 29 1 -1
BITMAP
1F8003800000
3FC007000000
70E007000000
70F00E000000
E0701C000000
E0701C000000
E07038000000
E07070000000
E07070000000
E070E0000000
7061C0000000
70E3C0000000
3FC380000000
1F8700000000
000F1F807E00
000E3FC0FF00
001C70E1C380
003C70F1C3C0
0038E07381C0
0070E07381C0
00E0E07381C0
00E0E07381C0
01C0E07381C0
0380E07381C0
03807061C180
070070E1C380
0E003FC0FF00
0E001F807E00
1C0000000000
ENDCHAR
STARTCHAR C0138
ENCODING 138
SWIDTH 468 0
DWIDTH 20 0
BBX 17 35 1 0
BITMAP
1F0780
0F0F00
079E00
03BC00
01F800
00F000
000000
000000
03F000
0FFC00
1FFE00
3E0E00
7C0200
780000
780000
780000
7C0000
7C0000
3F0000
1FC000
0FF000
03FC00
00FE00
003F00
001F00
000F80
000780
000780
000780
000780
C00F00
F03F00
FFFE00
7FFC00
0FE000
ENDCHAR
STARTCHAR C0139
ENCODING 139
SWIDTH 351 0
DWIDTH 15 0
BBX 9 18 2 2
BITMAP
0700
0700
0E00
1E00
1C00
3C00
3800
7800
7000
7000
7800
3800
3C00
1C00
0E00
0F00
0700
0780
ENDCHAR
STARTCHAR C0140
ENCODING 140
SWIDTH 867 0
DWIDTH 37 0
BBX 33 27 2 0
BITMAP
00FFBFFF80
03FFFFFF80
0FFFFFFF80
1F80FC0000
1E003C0000
3C003C0000
7C003C0000
78003C0000
78003C0000
F0003C0000
F0003C0000
F0003FFE00
F0003FFE00
F0003FFE00
F0003C0000
F0003C0000
F0003C0000
F0003C0000
F8003C0000
78003C0000
78003C0000
3C003C0000
3E003C0000
1F80FC0000
0FFFFFFF80
07FFFFFF80
00FFBFFF80
ENDCHAR
STARTCHAR C0141
ENCODING 141
SWIDTH 515 0
DWIDTH 22 0
BBX 20 27 1 0
BITMAP
FFFFF0
FFFFF0
C00030
C00030
C3F030
C7FC30
C61C30
C00E30
C00E30
C00E30
C00E30
C00E30
C01C30
C0FC30
C0F830
C0E030
C0E030
C0E030
C00030
C00030
C0F030
C0F030
C0F030
C00030
C00030
FFFFF0
FFFFF0
ENDCHAR
STARTCHAR C0142
ENCODING 142
SWIDTH 468 0
DWIDTH 20 0
BBX 18 35 1 0
BITMAP
1F0780
0F0F00
079E00
03BC00
01F800
00F000
000000
000000
7FFF80
7FFFC0
7FFFC0
000780
000780
000F00
001E00
001E00
003C00
003C00
007800
00F000
00F000
01E000
03C000
03C000
078000
0F0000
0F0000
1E0000
3C0000
3C0000
780000
780000
FFFFC0
FFFFC0
FFFFC0
ENDCHAR
STARTCHAR C0143
ENCODING 143
SWIDTH 515 0
DWIDTH 22 0
BBX 20 27 1 0
BITMAP
FFFFF0
FFFFF0
C00030
C00030
C3F030
C7FC30
C61C30
C00E30
C00E30
C00E30
C00E30
C00E30
C01C30
C0FC30
C0F830
C0E030
C0E030
C0E030
C00030
C00030
C0F030
C0F030
C0F030
C00030
C00030
FFFFF0
FFFFF0
ENDCHAR
STARTCHAR C0144
ENCODING 144
SWIDTH 515 0
DWIDTH 22 0
BBX 20 27 1 0
BITMAP
FFFFF0
FFFFF0
C00030
C00030
C3F030
C7FC30
C61C30
C00E30
C00E30
C00E30
C00E30
C00E30
C01C30
C0FC30
C0F830
C0E030
C0E030
C0E030
C00030
C00030
C0F030
C0F030
C0F030
C00030
C00030
FFFFF0
FFFFF0
ENDCHAR
STARTCHAR C0145
ENCODING 145
SWIDTH 257 0
DWIDTH 11 0
BBX 7 11 3 18
BITMAP
0E
0C
1C
38
38
70
F0
F0
F0
F0
F0
ENDCHAR
STARTCHAR C0146
ENCODING 146
SWIDTH 257 0
DWIDTH 11 0
BBX 7 11 1 18
BITMAP
1C
1E
1E
1E
1C
3C
38
78
70
E0
E0
ENDCHAR
STARTCHAR C0147
ENCODING 147
SWIDTH 421 0
DWIDTH 18 0
BBX 14 11 3 18
BITMAP
0E0C
1C1C
1C38
3838
7870
70F0
F0E0
F0E0
F1E0
F1E0
E0E0
ENDCHAR
STARTCHAR C0148
ENCODING 148
SWIDTH 421 0
DWIDTH 18 0
BBX 14 11 1 18
BITMAP
1C1C
1E3C
1E3C
1C3C
1C3C
3C38
3878
7070
70E0
E0E0
C1C0
ENDCHAR
STARTCHAR C0149
ENCODING 149
SWIDTH 492 0
DWIDTH 21 0
BBX 13 13 4 7
BITMAP
0F80
3FE0
7FF0
7FF0
FFF8
FFF8
FFF8
FFF8
FFF8
7FF0
7FF0
3FE0
0F80
ENDCHAR
STARTCHAR C0150
ENCODING 150
SWIDTH 492 0
DWIDTH 21 0
BBX 22 3 0 10
BITMAP
FFFFFC
FFFFFC
FFFFFC
ENDCHAR
STARTCHAR C0151
ENCODING 151
SWIDTH 914 0
DWIDTH 39 0
BBX 33 3 3 10
BITMAP
FFFFFFFF80
FFFFFFFF80
FFFFFFFF80
ENDCHAR
STARTCHAR C0152
ENCODING 152
SWIDTH 445 0
DWIDTH 19 0
BBX 14 6 3 23
BITMAP
3C1C
7F1C
FF9C
E7FC
E3F8
E0F0
ENDCHAR
STARTCHAR C0153
ENCODING 153
SWIDTH 703 0
DWIDTH 30 0
BBX 25 12 2 15
BITMAP
FF9E0700
FF9E0F80
1C1E0F80
1C1F0F80
1C1B1F80
1C1B1B80
1C19BB80
1C19B380
1C19B380
1C18F380
1C18E380
1C18E380
ENDCHAR
STARTCHAR C0154
ENCODING 154
SWIDTH 398 0
DWIDTH 17 0
BBX 13 30 2 0
BITMAP
7070
38E0
38E0
1DC0
0D80
0F80
0700
0000
0000
0000
0FE0
3FF0
7FF0
F830
F000
F000
F000
F800
7F00
3FC0
0FE0
03F0
00F8
0078
0078
8078
E0F8
FFF0
7FE0
1F80
ENDCHAR
STARTCHAR C0155
ENCODING 155
SWIDTH 351 0
DWIDTH 15 0
BBX 8 18 4 2
BITMAP
E0
F0
70
78
38
1C
1E
0E
0F
0F
0E
1E
1C
3C
78
70
F0
E0
ENDCHAR
STARTCHAR C0156
ENCODING 156
SWIDTH 867 0
DWIDTH 37 0
BBX 33 20 2 0
BITMAP
03F807F000
0FFE1FFC00
1FFF3FFE00
3E0FFC1F00
7C07F00F00
7803F00780
F801E00780
F001E00780
F001FFFF80
F001FFFF80
F001FFFF80
F001E00000
F001E00000
F003E00000
7803F00000
7C07F80000
3E0F7C0700
3FFF3FFF00
0FFC1FFF00
03F807F800
ENDCHAR
STARTCHAR C0157
ENCODING 157
SWIDTH 515 0
DWIDTH 22 0
BBX 20 27 1 0
BITMAP
FFFFF0
FFFFF0
C00030
C00030
C3F030
C7FC30
C61C30
C00E30
C00E30
C00E30
C00E30
C00E30
C01C30
C0FC30
C0F830
C0E030
C0E030
C0E030
C00030
C00030
C0F030
C0F030
C0F030
C00030
C00030
FFFFF0
FFFFF0
ENDCHAR
STARTCHAR C0158
ENCODING 158
SWIDTH 398 0
DWIDTH 17 0
BBX 13 30 2 0
BITMAP
7070
38E0
38E0
1DC0
0D80
0F80
0700
0000
0000
0000
FFF0
FFF0
FFF0
0070
00F0
01E0
01C0
03C0
0780
0700
0F00
1E00
1C00
3C00
3800
7800
F000
FFF8
FFF8
FFF8
ENDCHAR
STARTCHAR C0159
ENCODING 159
SWIDTH 492 0
DWIDTH 21 0
BBX 20 34 1 0
BITMAP
1E0F00
1E0F00
1E0F00
1E0F00
000000
000000
000000
F000F0
F000F0
7801E0
7801E0
3C03C0
3C03C0
1E0780
1E0780
0F0F00
0F0F00
079E00
079E00
03FC00
03FC00
01F800
01F800
00F000
00F000
00F000
00F000
00F000
00F000
00F000
00F000
00F000
00F000
00F000
ENDCHAR
STARTCHAR C0160
ENCODING 160
SWIDTH 234 0
DWIDTH 10 0
BBX 1 1 0 -1
BITMAP
00
ENDCHAR
STARTCHAR C0161
ENCODING 161
SWIDTH 328 0
DWIDTH 14 0
BBX 4 29 4 -4
BITMAP
F0
F0
F0
F0
F0
00
00
00
70
70
70
70
70
70
70
70
70
F0
F0
F0
F0
F0
F0
F0
F0
F0
F0
F0
F0
ENDCHAR
STARTCHAR C0162
ENCODING 162
SWIDTH 492 0
DWIDTH 21 0
BBX 15 27 4 0
BITMAP
01C0
01C0
01C0
01C0
07F0
1FFC
3FFE
3E0E
7806
7800
F000
F000
F000
F000
F000
F000
F000
F800
7C02
7E0E
3FFE
1FFC
07F0
01C0
01C0
01C0
01C0
ENDCHAR
STARTCHAR C0163
ENCODING 163
SWIDTH 515 0
DWIDTH 22 0
BBX 18 27 2 0
BITMAP
00FE00
03FF80
07FFC0
0FC1C0
0F00C0
0F0000
1E0000
1E0000
1E0000
1E0000
1E0000
1E0000
FFFC00
FFFC00
FFFC00
1E0000
1E0000
1E0000
1E0000
1E0000
1E0000
1E0000
1E0000
1E0000
FFFFC0
FFFFC0
FFFFC0
ENDCHAR
STARTCHAR C0164
ENCODING 164
SWIDTH 492 0
DWIDTH 21 0
BBX 19 22 1 1
BITMAP
F000E0
7801E0
3803C0
3DFB80
1FFF00
0FFF00
1E0F80
3C0780
380380
380380
3803C0
380380
380380
380380
3C0780
1E0F00
1FFE00
1FFF00
1DF780
3803C0
7801C0
F001E0
ENDCHAR
STARTCHAR C0165
ENCODING 165
SWIDTH 515 0
DWIDTH 22 0
BBX 20 27 1 0
BITMAP
F000F0
F800F0
7801E0
7C03E0
3C03C0
1E0780
1F0780
0F0F00
078E00
079E00
03DC00
03FC00
01F800
00F000
00F000
3FFFC0
3FFFC0
3FFFC0
00F000
00F000
00F000
3FFFC0
3FFFC0
3FFFC0
00F000
00F000
00F000
ENDCHAR
STARTCHAR C0166
ENCODING 166
SWIDTH 492 0
DWIDTH 21 0
BBX 3 39 9 -8
BITMAP
E0
E0
E0
E0
E0
E0
E0
E0
E0
E0
E0
E0
E0
E0
E0
00
00
00
00
00
00
00
00
E0
E0
E0
E0
E0
E0
E0
E0
E0
E0
E0
E0
E0
E0
E0
E0
ENDCHAR
STARTCHAR C0167
ENCODING 167
SWIDTH 492 0
DWIDTH 21 0
BBX 17 33 2 -4
BITMAP
03F000
0FFC00
1FFC00
3E0C00
3C0000
3C0000
3C0000
3E0000
1F0000
1F8000
1FF000
3FFC00
78FE00
F03F00
F00F80
F00780
F00780
F80780
7C0780
7E0700
3FCF00
0FFE00
03FC00
00FC00
003E00
001E00
001E00
001E00
601E00
703C00
7FFC00
3FF800
0FE000
ENDCHAR
STARTCHAR C0168
ENCODING 168
SWIDTH 398 0
DWIDTH 17 0
BBX 12 4 3 24
BITMAP
F0F0
F0F0
F0F0
F0F0
ENDCHAR
STARTCHAR C0169
ENCODING 169
SWIDTH 843 0
DWIDTH 36 0
BBX 28 29 4 0
BITMAP
007FE000
03FFFC00
07C03E00
0E000780
1C0003C0
381F81C0
703FE0E0
707FF0E0
60F07070
E1E03070
E1C00070
E1C00070
E1C00070
E1C00070
C3C00070
C1C00070
E1C00070
E1C00070
E1C00070
E1E03070
E0F070E0
70FFF0E0
707FE0E0
381F81C0
3C000380
1E000700
0FC03E00
03FFFC00
007FE000
ENDCHAR
STARTCHAR C0170
ENCODING 170
SWIDTH 398 0
DWIDTH 17 0
BBX 12 21 2 6
BITMAP
0F80
3FE0
7FF0
60F0
0070
0070
1FF0
3FF0
7870
7070
F070
70F0
7FF0
7FF0
1F70
0000
0000
0000
7FF0
FFF0
7FF0
ENDCHAR
STARTCHAR C0171
ENCODING 171
SWIDTH 515 0
DWIDTH 22 0
BBX 16 18 2 2
BITMAP
0787
0707
0F0E
0E1E
1C1C
3C3C
3878
7870
70F0
70F0
7878
3838
3C3C
1C1C
0E1E
0F0F
0707
0783
ENDCHAR
STARTCHAR C0172
ENCODING 172
SWIDTH 492 0
DWIDTH 21 0
BBX 18 8 1 6
BITMAP
FFFFC0
FFFFC0
FFFFC0
0001C0
0001C0
0001C0
0001C0
0001C0
ENDCHAR
STARTCHAR C0173
ENCODING 173
SWIDTH 304 0
DWIDTH 13 0
BBX 10 3 1 9
BITMAP
FFC0
FFC0
FFC0
ENDCHAR
STARTCHAR C0174
ENCODING 174
SWIDTH 515 0
DWIDTH 22 0
BBX 16 16 3 14
BITMAP
07E0
1FF8
381C
700E
E7C6
C7E3
C663
C663
C7E3
C7C3
C663
E676
700E
381C
1FF8
07E0
ENDCHAR
STARTCHAR C0175
ENCODING 175
SWIDTH 398 0
DWIDTH 17 0
BBX 11 3 3 24
BITMAP
FFE0
FFE0
FFE0
ENDCHAR
STARTCHAR C0176
ENCODING 176
SWIDTH 351 0
DWIDTH 15 0
BBX 11 9 2 19
BITMAP
1F00
7FC0
71E0
E0E0
E0E0
E0E0
F1C0
7FC0
1F00
ENDCHAR
STARTCHAR C0177
ENCODING 177
SWIDTH 492 0
DWIDTH 21 0
BBX 19 24 1 0
BITMAP
00E000
00E000
00E000
00E000
00E000
00E000
00E000
00E000
FFFFE0
FFFFE0
FFFFE0
00E000
00E000
00E000
00E000
00E000
00E000
00E000
00E000
000000
000000
FFFFE0
FFFFE0
FFFFE0
ENDCHAR
STARTCHAR C0178
ENCODING 178
SWIDTH 328 0
DWIDTH 14 0
BBX 11 16 2 15
BITMAP
3F00
FF80
FFC0
C7C0
03C0
03C0
03C0
0780
0700
0E00
1E00
3C00
7800
FFE0
FFE0
FFE0
ENDCHAR
STARTCHAR C0179
ENCODING 179
SWIDTH 328 0
DWIDTH 14 0
BBX 11 16 1 15
BITMAP
3F00
FF80
FFC0
C7C0
03C0
03C0
0780
3F00
3F80
03C0
01E0
01E0
C3E0
FFC0
FFC0
3F00
ENDCHAR
STARTCHAR C0180
ENCODING 180
SWIDTH 304 0
DWIDTH 13 0
BBX 7 7 3 23
BITMAP
1E
1E
3C
38
70
F0
E0
ENDCHAR
STARTCHAR C0181
ENCODING 181
SWIDTH 562 0
DWIDTH 24 0
BBX 20 27 3 -7
BITMAP
F00780
F00780
F00780
F00780
F00780
F00780
F00780
F00780
F00780
F00780
F00780
F00780
F00780
F00780
F00F80
F81F80
FC3F80
FFFBF0
FFF3F0
F7C1F0
F00000
F00000
F00000
F00000
F00000
F00000
F00000
ENDCHAR
STARTCHAR C0182
ENCODING 182
SWIDTH 585 0
DWIDTH 25 0
BBX 19 32 2 -5
BITMAP
07FFE0
1FFFE0
3FFFE0
7FF0E0
7FF0E0
FFF0E0
FFF0E0
FFF0E0
FFF0E0
FFF0E0
FFF0E0
7FF0E0
7FF0E0
3FF0E0
1FF0E0
07F0E0
0070E0
0070E0
0070E0
0070E0
0070E0
0070E0
0070E0
0070E0
0070E0
0070E0
0070E0
0070E0
0070E0
0070E0
0070E0
0070E0
ENDCHAR
STARTCHAR C0183
ENCODING 183
SWIDTH 257 0
DWIDTH 11 0
BBX 5 5 3 10
BITMAP
70
F8
F8
F8
70
ENDCHAR
STARTCHAR C0184
ENCODING 184
SWIDTH 304 0
DWIDTH 13 0
BBX 8 7 2 -7
BITMAP
1C
0E
07
07
FF
FF
7C
ENDCHAR
STARTCHAR C0185
ENCODING 185
SWIDTH 257 0
DWIDTH 11 0
BBX 7 16 1 15
BITMAP
0E
3E
7E
EE
CE
0E
0E
0E
0E
0E
0E
0E
0E
0E
0E
0E
ENDCHAR
STARTCHAR C0186
ENCODING 186
SWIDTH 421 0
DWIDTH 18 0
BBX 14 21 2 6
BITMAP
0FC0
3FF0
3FF8
7878
703C
F03C
F01C
E01C
F01C
F03C
F03C
7878
7FF0
3FF0
0FC0
0000
0000
0000
7FF8
7FF8
7FF8
ENDCHAR
STARTCHAR C0187
ENCODING 187
SWIDTH 515 0
DWIDTH 22 0
BBX 16 18 4 2
BITMAP
C1E0
E0E0
F0F0
7870
3838
3C3C
1C1C
1E1E
0F0E
0F0E
0E1E
1E1C
3C3C
3838
7870
70F0
E0E0
C1E0
ENDCHAR
STARTCHAR C0188
ENCODING 188
SWIDTH 632 0
DWIDTH 27 0
BBX 25 29 1 -1
BITMAP
0E000E00
3E001C00
7E001C00
EE003800
CE007000
0E007000
0E00E000
0E01C000
0E01C000
0E038000
0E070000
0E0F0000
0E0E0000
0E1C0000
003C1E00
00383E00
00707E00
00F06E00
00E0EE00
01C1CE00
0381CE00
03838E00
07070E00
0E07FF80
0E07FF80
1C000E00
38000E00
38000E00
70000000
ENDCHAR
STARTCHAR C0189
ENCODING 189
SWIDTH 679 0
DWIDTH 29 0
BBX 26 29 1 -1
BITMAP
0E000E00
3E001C00
7E001C00
EE003800
CE007000
0E007000
0E00E000
0E01C000
0E01C000
0E038000
0E070000
0E0F0000
0E0E0000
0E1C0000
003C7E00
0038FF00
00708F80
00F00780
00E00780
01C00780
03800F80
03800F00
07001E00
0E003C00
0E007800
1C007000
3800FFC0
3800FFC0
70000000
ENDCHAR
STARTCHAR C0190
ENCODING 190
SWIDTH 679 0
DWIDTH 29 0
BBX 25 29 2 -1
BITMAP
7E000700
FF000E00
C7800E00
03801C00
03803800
07003800
7E007000
7F80E000
07C0E000
03C1C000
03C38000
87C78000
FF870000
7E0E0000
001E1E00
001C3E00
00387E00
00786E00
0070EE00
00E1CE00
01C1CE00
01C38E00
03870E00
0707FF80
0707FF80
0E000E00
1C000E00
1C000E00
38000000
ENDCHAR
STARTCHAR C0191
ENCODING 191
SWIDTH 468 0
DWIDTH 20 0
BBX 16 29 2 -4
BITMAP
01E0
01E0
01E0
01E0
01E0
0000
0000
0000
01E0
01E0
01E0
01E0
01E0
01E0
07E0
1FE0
3E00
7800
F000
F000
F000
F000
F000
F800
7803
7E0F
3FFF
1FFE
07F8
ENDCHAR
STARTCHAR C0192
ENCODING 192
SWIDTH 585 0
DWIDTH 25 0
BBX 23 35 1 0
BITMAP
078000
03C000
01E000
00E000
007000
003800
000000
000000
007C00
007C00
00FC00
00FE00
00FE00
01EF00
01CF00
01C700
03C780
038780
078380
0783C0
0703C0
0F01C0
0E01E0
0E01E0
1E00F0
1FFFF0
1FFFF0
3FFFF8
380078
780038
78003C
70003C
F0001E
F0001E
E0001E
ENDCHAR
STARTCHAR C0193
ENCODING 193
SWIDTH 585 0
DWIDTH 25 0
BBX 23 35 1 0
BITMAP
0003C0
000780
000F00
000E00
001C00
003800
000000
000000
007C00
007C00
00FC00
00FE00
00FE00
01EF00
01CF00
01C700
03C780
038780
078380
0783C0
0703C0
0F01C0
0E01E0
0E01E0
1E00F0
1FFFF0
1FFFF0
3FFFF8
380078
780038
78003C
70003C
F0001E
F0001E
E0001E
ENDCHAR
STARTCHAR C0194
ENCODING 194
SWIDTH 585 0
DWIDTH 25 0
BBX 23 35 1 0
BITMAP
007800
00FC00
01EE00
03CF00
078780
0F07C0
000000
000000
007C00
007C00
00FC00
00FE00
00FE00
01EF00
01CF00
01C700
03C780
038780
078380
0783C0
0703C0
0F01C0
0E01E0
0E01E0
1E00F0
1FFFF0
1FFFF0
3FFFF8
380078
780038
78003C
70003C
F0001E
F0001E
E0001E
ENDCHAR
STARTCHAR C0195
ENCODING 195
SWIDTH 585 0
DWIDTH 25 0
BBX 23 34 1 0
BITMAP
01E0E0
03F8E0
07FFE0
071FC0
070780
000000
000000
007C00
007C00
00FC00
00FE00
00FE00
01EF00
01CF00
01C700
03C780
038780
078380
0783C0
0703C0
0F01C0
0E01E0
0E01E0
1E00F0
1FFFF0
1FFFF0
3FFFF8
380078
780038
78003C
70003C
F0001E
F0001E
E0001E
ENDCHAR
STARTCHAR C0196
ENCODING 196
SWIDTH 585 0
DWIDTH 25 0
BBX 23 34 1 0
BITMAP
0783C0
0783C0
0783C0
0783C0
000000
000000
000000
007C00
007C00
00FC00
00FE00
00FE00
01EF00
01CF00
01C700
03C780
038780
078380
0783C0
0703C0
0F01C0
0E01E0
0E01E0
1E00F0
1FFFF0
1FFFF0
3FFFF8
380078
780038
78003C
70003C
F0001E
F0001E
E0001E
ENDCHAR
STARTCHAR C0197
ENCODING 197
SWIDTH 585 0
DWIDTH 25 0
BBX 23 36 1 0
BITMAP
003C00
007E00
00E700
00C300
00C300
00E700
007E00
003C00
000000
007C00
007C00
00FC00
00FE00
00FE00
01EF00
01CF00
01C700
03C780
038780
078380
0783C0
0703C0
0F01C0
0E01E0
0E01E0
1E00F0
1FFFF0
1FFFF0
3FFFF8
380078
780038
78003C
70003C
F0001E
F0001E
E0001E
ENDCHAR
STARTCHAR C0198
ENCODING 198
SWIDTH 773 0
DWIDTH 33 0
BBX 32 27 -1 0
BITMAP
0003FFFF
0003FFFF
0007FFFF
00077800
000F7800
001E7800
001E7800
003C7800
003C7800
00787800
00707800
00F07FFC
00E07FFC
01E07FFC
03C07800
03C07800
07807800
07FFF800
0FFFF800
0FFFF800
1E007800
1E007800
3C007800
78007800
78007FFF
F0007FFF
F0007FFF
ENDCHAR
STARTCHAR C0199
ENCODING 199
SWIDTH 539 0
DWIDTH 23 0
BBX 20 35 2 -8
BITMAP
00FE00
03FFC0
07FFE0
0F81F0
1F0070
3C0030
3C0000
780000
780000
F00000
F00000
F00000
F00000
F00000
F00000
F00000
F00000
F00000
780000
780000
7C0000
3C0010
3E0070
1F81F0
0FFFE0
07FFC0
00FE00
003800
001C00
000C00
000E00
000E00
01FE00
01FC00
00F800
ENDCHAR
STARTCHAR C0200
ENCODING 200
SWIDTH 492 0
DWIDTH 21 0
BBX 15 35 4 0
BITMAP
F000
7800
3C00
1C00
0E00
0700
0000
0000
FFFE
FFFE
FFFE
F000
F000
F000
F000
F000
F000
F000
F000
FFF8
FFF8
FFF8
F000
F000
F000
F000
F000
F000
F000
F000
F000
F000
FFFE
FFFE
FFFE
ENDCHAR
STARTCHAR C0201
ENCODING 201
SWIDTH 492 0
DWIDTH 21 0
BBX 15 35 4 0
BITMAP
003C
0078
00F0
00E0
01C0
0380
0000
0000
FFFE
FFFE
FFFE
F000
F000
F000
F000
F000
F000
F000
F000
FFF8
FFF8
FFF8
F000
F000
F000
F000
F000
F000
F000
F000
F000
F000
FFFE
FFFE
FFFE
ENDCHAR
STARTCHAR C0202
ENCODING 202
SWIDTH 492 0
DWIDTH 21 0
BBX 16 35 3 0
BITMAP
0780
0FC0
1EE0
3CF0
7878
F07C
0000
0000
7FFF
7FFF
7FFF
7800
7800
7800
7800
7800
7800
7800
7800
7FFC
7FFC
7FFC
7800
7800
7800
7800
7800
7800
7800
7800
7800
7800
7FFF
7FFF
7FFF
ENDCHAR
STARTCHAR C0203
ENCODING 203
SWIDTH 492 0
DWIDTH 21 0
BBX 15 34 4 0
BITMAP
783C
783C
783C
783C
0000
0000
0000
FFFE
FFFE
FFFE
F000
F000
F000
F000
F000
F000
F000
F000
FFF8
FFF8
FFF8
F000
F000
F000
F000
F000
F000
F000
F000
F000
F000
FFFE
FFFE
FFFE
ENDCHAR
STARTCHAR C0204
ENCODING 204
SWIDTH 257 0
DWIDTH 11 0
BBX 9 35 -1 0
BITMAP
F000
7800
3C00
1C00
0E00
0700
0000
0000
0780
0780
0780
0780
0780
0780
0780
0780
0780
0780
0780
0780
0780
0780
0780
0780
0780
0780
0780
0780
0780
0780
0780
0780
0780
0780
0780
ENDCHAR
STARTCHAR C0205
ENCODING 205
SWIDTH 257 0
DWIDTH 11 0
BBX 8 35 4 0
BITMAP
0F
1E
3C
38
70
E0
00
00
F0
F0
F0
F0
F0
F0
F0
F0
F0
F0
F0
F0
F0
F0
F0
F0
F0
F0
F0
F0
F0
F0
F0
F0
F0
F0
F0
ENDCHAR
STARTCHAR C0206
ENCODING 206
SWIDTH 257 0
DWIDTH 11 0
BBX 14 35 -2 0
BITMAP
0780
0FC0
1EE0
3CF0
7878
F07C
0000
0000
03C0
03C0
03C0
03C0
03C0
03C0
03C0
03C0
03C0
03C0
03C0
03C0
03C0
03C0
03C0
03C0
03C0
03C0
03C0
03C0
03C0
03C0
03C0
03C0
03C0
03C0
03C0
ENDCHAR
STARTCHAR C0207
ENCODING 207
SWIDTH 257 0
DWIDTH 11 0
BBX 13 34 -1 0
BITMAP
F078
F078
F078
F078
0000
0000
0000
0780
0780
0780
0780
0780
0780
0780
0780
0780
0780
0780
0780
0780
0780
0780
0780
0780
0780
0780
0780
0780
0780
0780
0780
0780
0780
0780
ENDCHAR
STARTCHAR C0208
ENCODING 208
SWIDTH 632 0
DWIDTH 27 0
BBX 24 27 1 0
BITMAP
1FFE00
1FFFC0
1FFFE0
1E03F8
1E00F8
1E007C
1E003E
1E001E
1E001E
1E000F
1E000F
FFF00F
FFF00F
FFF00F
1E000F
1E000F
1E000F
1E000F
1E001E
1E001E
1E003E
1E003C
1E00F8
1E03F8
1FFFE0
1FFFC0
1FFE00
ENDCHAR
STARTCHAR C0209
ENCODING 209
SWIDTH 656 0
DWIDTH 28 0
BBX 21 34 4 0
BITMAP
078380
0FE380
1FFF80
1C7F00
1C1E00
000000
000000
FC0078
FC0078
FE0078
FF0078
FF0078
F78078
F78078
F3C078
F3C078
F1E078
F1E078
F0F078
F0F078
F07878
F07878
F03C78
F03C78
F01E78
F01E78
F00F78
F00778
F007F8
F003F8
F003F8
F001F8
F001F8
F000F8
ENDCHAR
STARTCHAR C0210
ENCODING 210
SWIDTH 656 0
DWIDTH 28 0
BBX 24 35 2 0
BITMAP
03C000
01E000
00F000
007000
003800
001C00
000000
000000
00FF00
03FFE0
0FFFF0
1F81F8
3E007C
3C003C
7C001E
78001E
78001F
F0000F
F0000F
F0000F
F0000F
F0000F
F0000F
F0000F
F0000F
F0000F
F8001E
78001E
78003E
3C003C
3E007C
1F81F8
0FFFF0
07FFC0
00FF00
ENDCHAR
STARTCHAR C0211
ENCODING 211
SWIDTH 656 0
DWIDTH 28 0
BBX 24 35 2 0
BITMAP
0003C0
000780
000F00
000E00
001C00
003800
000000
000000
00FF00
03FFE0
0FFFF0
1F81F8
3E007C
3C003C
7C001E
78001E
78001F
F0000F
F0000F
F0000F
F0000F
F0000F
F0000F
F0000F
F0000F
F0000F
F8001E
78001E
78003E
3C003C
3E007C
1F81F8
0FFFF0
07FFC0
00FF00
ENDCHAR
STARTCHAR C0212
ENCODING 212
SWIDTH 656 0
DWIDTH 28 0
BBX 24 35 2 0
BITMAP
003C00
007E00
00F700
01E780
03C3C0
0783E0
000000
000000
00FF00
03FFE0
0FFFF0
1F81F8
3E007C
3C003C
7C001E
78001E
78001F
F0000F
F0000F
F0000F
F0000F
F0000F
F0000F
F0000F
F0000F
F0000F
F8001E
78001E
78003E
3C003C
3E007C
1F81F8
0FFFF0
07FFC0
00FF00
ENDCHAR
STARTCHAR C0213
ENCODING 213
SWIDTH 656 0
DWIDTH 28 0
BBX 24 34 2 0
BITMAP
00F070
01FC70
03FFF0
038FE0
0383C0
000000
000000
00FF00
03FFE0
0FFFF0
1F81F8
3E007C
3C003C
7C001E
78001E
78001F
F0000F
F0000F
F0000F
F0000F
F0000F
F0000F
F0000F
F0000F
F0000F
F8001E
78001E
78003E
3C003C
3E007C
1F81F8
0FFFF0
07FFC0
00FF00
ENDCHAR
STARTCHAR C0214
ENCODING 214
SWIDTH 656 0
DWIDTH 28 0
BBX 24 34 2 0
BITMAP
03C1E0
03C1E0
03C1E0
03C1E0
000000
000000
000000
00FF00
03FFE0
0FFFF0
1F81F8
3E007C
3C003C
7C001E
78001E
78001F
F0000F
F0000F
F0000F
F0000F
F0000F
F0000F
F0000F
F0000F
F0000F
F8001E
78001E
78003E
3C003C
3E007C
1F81F8
0FFFF0
07FFC0
00FF00
ENDCHAR
STARTCHAR C0215
ENCODING 215
SWIDTH 492 0
DWIDTH 21 0
BBX 17 17 2 3
BITMAP
600300
F00780
F80F80
7C1F00
3E3E00
1F7C00
0FF800
07F000
03E000
07F000
0FF800
1F7C00
3E3E00
7C1F00
F80F80
F00780
600300
ENDCHAR
STARTCHAR C0216
ENCODING 216
SWIDTH 679 0
DWIDTH 29 0
BBX 24 35 2 -4
BITMAP
00001E
00001C
00003C
000038
00FF78
03FFF0
0FFFF0
1F81F8
1E01FC
3C01FE
7803DE
78038F
78078F
F0070F
F00F0F
F00E07
F01E07
F01C07
F03807
F03807
F0700F
F0700F
78E00F
79E00E
79C01E
3FC03E
3F807C
1F81F8
0FFFF0
0FFFE0
0EFF00
1E0000
1C0000
3C0000
380000
ENDCHAR
STARTCHAR C0217
ENCODING 217
SWIDTH 656 0
DWIDTH 28 0
BBX 20 35 4 0
BITMAP
1E0000
0F0000
078000
038000
01C000
00E000
000000
000000
F000F0
F000F0
F000F0
F000F0
F000F0
F000F0
F000F0
F000F0
F000F0
F000F0
F000F0
F000F0
F000F0
F000F0
F000F0
F000F0
F000F0
F000F0
F000F0
F000F0
F801F0
7801E0
7C03E0
3E07C0
1FFF80
0FFF00
03FC00
ENDCHAR
STARTCHAR C0218
ENCODING 218
SWIDTH 656 0
DWIDTH 28 0
BBX 20 35 4 0
BITMAP
000F00
001E00
003C00
003800
007000
00E000
000000
000000
F000F0
F000F0
F000F0
F000F0
F000F0
F000F0
F000F0
F000F0
F000F0
F000F0
F000F0
F000F0
F000F0
F000F0
F000F0
F000F0
F000F0
F000F0
F000F0
F000F0
F801F0
7801E0
7C03E0
3E07C0
1FFF80
0FFF00
03FC00
ENDCHAR
STARTCHAR C0219
ENCODING 219
SWIDTH 656 0
DWIDTH 28 0
BBX 20 35 4 0
BITMAP
01E000
03F000
07B800
0F3C00
1E1E00
3C1F00
000000
000000
F000F0
F000F0
F000F0
F000F0
F000F0
F000F0
F000F0
F000F0
F000F0
F000F0
F000F0
F000F0
F000F0
F000F0
F000F0
F000F0
F000F0
F000F0
F000F0
F000F0
F801F0
7801E0
7C03E0
3E07C0
1FFF80
0FFF00
03FC00
ENDCHAR
STARTCHAR C0220
ENCODING 220
SWIDTH 656 0
DWIDTH 28 0
BBX 20 34 4 0
BITMAP
0F0780
0F0780
0F0780
0F0780
000000
000000
000000
F000F0
F000F0
F000F0
F000F0
F000F0
F000F0
F000F0
F000F0
F000F0
F000F0
F000F0
F000F0
F000F0
F000F0
F000F0
F000F0
F000F0
F000F0
F000F0
F000F0
F801F0
7801E0
7C03E0
3E07C0
1FFF80
0FFF00
03FC00
ENDCHAR
STARTCHAR C0221
ENCODING 221
SWIDTH 492 0
DWIDTH 21 0
BBX 20 35 1 0
BITMAP
000780
000F00
001E00
001C00
003800
007000
000000
000000
F000F0
F000F0
7801E0
7801E0
3C03C0
3C03C0
1E0780
1E0780
0F0F00
0F0F00
079E00
079E00
03FC00
03FC00
01F800
01F800
00F000
00F000
00F000
00F000
00F000
00F000
00F000
00F000
00F000
00F000
00F000
ENDCHAR
STARTCHAR C0222
ENCODING 222
SWIDTH 515 0
DWIDTH 22 0
BBX 17 27 4 0
BITMAP
F00000
F00000
F00000
F00000
F00000
FFF000
FFFC00
FFFE00
F03F00
F00F00
F00780
F00780
F00780
F00780
F00780
F00F80
F00F00
F03F00
FFFE00
FFF800
FFE000
F00000
F00000
F00000
F00000
F00000
F00000
ENDCHAR
STARTCHAR C0223
ENCODING 223
SWIDTH 539 0
DWIDTH 23 0
BBX 18 29 3 0
BITMAP
07F000
1FFC00
3FFE00
7C3E00
781F00
F00F00
F00F00
F00F00
F00F00
F03F00
F0FE00
F0F000
F1E000
F1E000
F1E000
F1F000
F0F800
F0FC00
F07F00
F01F80
F00F80
F007C0
F003C0
F003C0
F003C0
F187C0
F1FF80
F1FF00
F07C00
ENDCHAR
STARTCHAR C0224
ENCODING 224
SWIDTH 492 0
DWIDTH 21 0
BBX 16 30 2 0
BITMAP
1E00
1E00
0F00
0700
0380
03C0
01C0
0000
0000
0000
07F0
1FFC
7FFE
783E
601F
000F
000F
000F
07FF
1FFF
7FFF
7C0F
F80F
F00F
F00F
F01F
F87F
7FFF
3FE7
0F87
ENDCHAR
STARTCHAR C0225
ENCODING 225
SWIDTH 492 0
DWIDTH 21 0
BBX 16 30 2 0
BITMAP
003C
003C
0078
0070
00E0
01E0
01C0
0000
0000
0000
07F0
1FFC
7FFE
783E
601F
000F
000F
000F
07FF
1FFF
7FFF
7C0F
F80F
F00F
F00F
F01F
F87F
7FFF
3FE7
0F87
ENDCHAR
STARTCHAR C0226
ENCODING 226
SWIDTH 492 0
DWIDTH 21 0
BBX 16 30 2 0
BITMAP
01C0
03E0
0360
0770
0E38
0E38
1C1C
0000
0000
0000
07F0
1FFC
7FFE
783E
601F
000F
000F
000F
07FF
1FFF
7FFF
7C0F
F80F
F00F
F00F
F01F
F87F
7FFF
3FE7
0F87
ENDCHAR
STARTCHAR C0227
ENCODING 227
SWIDTH 492 0
DWIDTH 21 0
BBX 16 29 2 0
BITMAP
0F07
1FC7
3FE7
39FF
38FE
383C
0000
0000
0000
07F0
1FFC
7FFE
783E
601F
000F
000F
000F
07FF
1FFF
7FFF
7C0F
F80F
F00F
F00F
F01F
F87F
7FFF
3FE7
0F87
ENDCHAR
STARTCHAR C0228
ENCODING 228
SWIDTH 492 0
DWIDTH 21 0
BBX 16 28 2 0
BITMAP
1E1E
1E1E
1E1E
1E1E
0000
0000
0000
0000
07F0
1FFC
7FFE
783E
601F
000F
000F
000F
07FF
1FFF
7FFF
7C0F
F80F
F00F
F00F
F01F
F87F
7FFF
3FE7
0F87
ENDCHAR
STARTCHAR C0229
ENCODING 229
SWIDTH 492 0
DWIDTH 21 0
BBX 16 31 2 0
BITMAP
03C0
07E0
0E70
0C30
0C30
0E70
07E0
03C0
0000
0000
0000
07F0
1FFC
7FFE
783E
601F
000F
000F
000F
07FF
1FFF
7FFF
7C0F
F80F
F00F
F00F
F01F
F87F
7FFF
3FE7
0F87
ENDCHAR
STARTCHAR C0230
ENCODING 230
SWIDTH 773 0
DWIDTH 33 0
BBX 29 20 2 0
BITMAP
07F03F00
3FF8FFC0
7FFDFFE0
783FC1F0
601F80F0
000F8078
000F0078
000F0078
03FFFFF8
1FFFFFF8
3FFFFFF8
7C0F0000
F80F0000
F00F0000
F00F8000
F01F8000
F83FE030
7FF9FFF0
3FF0FFF0
0FC03F80
ENDCHAR
STARTCHAR C0231
ENCODING 231
SWIDTH 421 0
DWIDTH 18 0
BBX 15 27 2 -7
BITMAP
03F0
0FFC
1FFE
3E0E
7C06
7800
F000
F000
F000
F000
F000
F000
F000
F000
7800
7C06
7E0E
3FFE
1FFC
07F0
0380
01C0
00E0
00E0
1FE0
1FC0
0F80
ENDCHAR
STARTCHAR C0232
ENCODING 232
SWIDTH 492 0
DWIDTH 21 0
BBX 17 30 2 0
BITMAP
0F0000
0F0000
078000
038000
01C000
01E000
00E000
000000
000000
000000
03F000
0FFC00
1FFE00
3C1F00
780F00
780780
F00780
F00780
FFFF80
FFFF80
FFFF80
F00000
F00000
F00000
780000
780000
3E0300
3FFF00
1FFF00
03FC00
ENDCHAR
STARTCHAR C0233
ENCODING 233
SWIDTH 492 0
DWIDTH 21 0
BBX 17 30 2 0
BITMAP
003C00
003C00
007800
007000
00E000
01E000
01C000
000000
000000
000000
03F000
0FFC00
1FFE00
3C1F00
780F00
780780
F00780
F00780
FFFF80
FFFF80
FFFF80
F00000
F00000
F00000
780000
780000
3E0300
3FFF00
1FFF00
03FC00
ENDCHAR
STARTCHAR C0234
ENCODING 234
SWIDTH 492 0
DWIDTH 21 0
BBX 17 30 2 0
BITMAP
01C000
03E000
036000
077000
0E3800
0E3800
1C1C00
000000
000000
000000
03F000
0FFC00
1FFE00
3C1F00
780F00
780780
F00780
F00780
FFFF80
FFFF80
FFFF80
F00000
F00000
F00000
780000
780000
3E0300
3FFF00
1FFF00
03FC00
ENDCHAR
STARTCHAR C0235
ENCODING 235
SWIDTH 492 0
DWIDTH 21 0
BBX 17 28 2 0
BITMAP
1E1E00
1E1E00
1E1E00
1E1E00
000000
000000
000000
000000
03F000
0FFC00
1FFE00
3C1F00
780F00
780780
F00780
F00780
FFFF80
FFFF80
FFFF80
F00000
F00000
F00000
780000
780000
3E0300
3FFF00
1FFF00
03FC00
ENDCHAR
STARTCHAR C0236
ENCODING 236
SWIDTH 234 0
DWIDTH 10 0
BBX 7 30 0 0
BITMAP
F0
F0
78
38
1C
1E
0E
00
00
00
1E
1E
1E
1E
1E
1E
1E
1E
1E
1E
1E
1E
1E
1E
1E
1E
1E
1E
1E
1E
ENDCHAR
STARTCHAR C0237
ENCODING 237
SWIDTH 234 0
DWIDTH 10 0
BBX 7 30 3 0
BITMAP
1E
1E
3C
38
70
F0
E0
00
00
00
F0
F0
F0
F0
F0
F0
F0
F0
F0
F0
F0
F0
F0
F0
F0
F0
F0
F0
F0
F0
ENDCHAR
STARTCHAR C0238
ENCODING 238
SWIDTH 234 0
DWIDTH 10 0
BBX 11 30 0 0
BITMAP
0E00
1F00
1B00
3B80
71C0
71C0
E0E0
0000
0000
0000
1E00
1E00
1E00
1E00
1E00
1E00
1E00
1E00
1E00
1E00
1E00
1E00
1E00
1E00
1E00
1E00
1E00
1E00
1E00
1E00
ENDCHAR
STARTCHAR C0239
ENCODING 239
SWIDTH 234 0
DWIDTH 10 0
BBX 11 28 0 0
BITMAP
F1E0
F1E0
F1E0
F1E0
0000
0000
0000
0000
1E00
1E00
1E00
1E00
1E00
1E00
1E00
1E00
1E00
1E00
1E00
1E00
1E00
1E00
1E00
1E00
1E00
1E00
1E00
1E00
ENDCHAR
STARTCHAR C0240
ENCODING 240
SWIDTH 539 0
DWIDTH 23 0
BBX 18 29 2 0
BITMAP
03C000
01E1C0
00FFC0
03FFC0
1FFE00
1FFC00
1C1E00
001F00
000F00
07E780
1FF780
3FFF80
3E1FC0
7C0FC0
7807C0
F003C0
F003C0
F003C0
F003C0
F003C0
F003C0
F003C0
F00780
780780
780F80
7E1F00
3FFE00
1FFC00
07F000
ENDCHAR
STARTCHAR C0241
ENCODING 241
SWIDTH 539 0
DWIDTH 23 0
BBX 16 29 3 0
BITMAP
0F07
1FC7
3FE7
39FF
38FE
383C
0000
0000
0000
F1F0
F7FC
FFFE
FE3E
FC1F
F80F
F00F
F00F
F00F
F00F
F00F
F00F
F00F
F00F
F00F
F00F
F00F
F00F
F00F
F00F
ENDCHAR
STARTCHAR C0242
ENCODING 242
SWIDTH 539 0
DWIDTH 23 0
BBX 19 30 2 0
BITMAP
0F0000
0F0000
078000
038000
01C000
01E000
00E000
000000
000000
000000
03F800
0FFE00
1FFF80
3E0F80
7C07C0
7803C0
F801E0
F001E0
F001E0
F001E0
F001E0
F001E0
F001E0
F003E0
7803C0
7C07C0
3E0F80
3FFF00
0FFE00
03F800
ENDCHAR
STARTCHAR C0243
ENCODING 243
SWIDTH 539 0
DWIDTH 23 0
BBX 19 30 2 0
BITMAP
001E00
001E00
003C00
003800
007000
00F000
00E000
000000
000000
000000
03F800
0FFE00
1FFF80
3E0F80
7C07C0
7803C0
F801E0
F001E0
F001E0
F001E0
F001E0
F001E0
F001E0
F003E0
7803C0
7C07C0
3E0F80
3FFF00
0FFE00
03F800
ENDCHAR
STARTCHAR C0244
ENCODING 244
SWIDTH 539 0
DWIDTH 23 0
BBX 19 30 2 0
BITMAP
00E000
01F000
01B000
03B800
071C00
071C00
0E0E00
000000
000000
000000
03F800
0FFE00
1FFF80
3E0F80
7C07C0
7803C0
F801E0
F001E0
F001E0
F001E0
F001E0
F001E0
F001E0
F003E0
7803C0
7C07C0
3E0F80
3FFF00
0FFE00
03F800
ENDCHAR
STARTCHAR C0245
ENCODING 245
SWIDTH 539 0
DWIDTH 23 0
BBX 19 29 2 0
BITMAP
078380
0FE380
1FF380
1CFF80
1C7F00
1C1E00
000000
000000
000000
03F800
0FFE00
1FFF80
3E0F80
7C07C0
7803C0
F801E0
F001E0
F001E0
F001E0
F001E0
F001E0
F001E0
F003E0
7803C0
7C07C0
3E0F80
3FFF00
0FFE00
03F800
ENDCHAR
STARTCHAR C0246
ENCODING 246
SWIDTH 539 0
DWIDTH 23 0
BBX 19 28 2 0
BITMAP
0F0F00
0F0F00
0F0F00
0F0F00
000000
000000
000000
000000
03F800
0FFE00
1FFF80
3E0F80
7C07C0
7803C0
F801E0
F001E0
F001E0
F001E0
F001E0
F001E0
F001E0
F003E0
7803C0
7C07C0
3E0F80
3FFF00
0FFE00
03F800
ENDCHAR
STARTCHAR C0247
ENCODING 247
SWIDTH 492 0
DWIDTH 21 0
BBX 19 21 1 2
BITMAP
00E000
01F000
01F000
01F000
00E000
000000
000000
000000
000000
FFFFE0
FFFFE0
FFFFE0
000000
000000
000000
000000
00E000
01F000
01F000
01F000
00E000
ENDCHAR
STARTCHAR C0248
ENCODING 248
SWIDTH 539 0
DWIDTH 23 0
BBX 19 26 2 -3
BITMAP
000380
000380
000700
03FF00
0FFE00
1FFF80
3E1F80
7C1FC0
783BC0
F83BE0
F071E0
F071E0
F0E1E0
F0E1E0
F1C1E0
F1C1E0
F383E0
7B83C0
7F07C0
3F0F80
3FFF00
0FFE00
1FF800
1C0000
380000
380000
ENDCHAR
STARTCHAR C0249
ENCODING 249
SWIDTH 539 0
DWIDTH 23 0
BBX 16 30 3 0
BITMAP
1E00
1E00
0F00
0700
0380
03C0
01C0
0000
0000
0000
F00F
F00F
F00F
F00F
F00F
F00F
F00F
F00F
F00F
F00F
F00F
F00F
F00F
F00F
F01F
F83F
7C7F
7FFF
3FEF
0F8F
ENDCHAR
STARTCHAR C0250
ENCODING 250
SWIDTH 539 0
DWIDTH 23 0
BBX 16 30 3 0
BITMAP
003C
003C
0078
0070
00E0
01E0
01C0
0000
0000
0000
F00F
F00F
F00F
F00F
F00F
F00F
F00F
F00F
F00F
F00F
F00F
F00F
F00F
F00F
F01F
F83F
7C7F
7FFF
3FEF
0F8F
ENDCHAR
STARTCHAR C0251
ENCODING 251
SWIDTH 539 0
DWIDTH 23 0
BBX 16 30 3 0
BITMAP
01C0
03E0
0360
0770
0E38
0E38
1C1C
0000
0000
0000
F00F
F00F
F00F
F00F
F00F
F00F
F00F
F00F
F00F
F00F
F00F
F00F
F00F
F00F
F01F
F83F
7C7F
7FFF
3FEF
0F8F
ENDCHAR
STARTCHAR C0252
ENCODING 252
SWIDTH 539 0
DWIDTH 23 0
BBX 16 28 3 0
BITMAP
1E1E
1E1E
1E1E
1E1E
0000
0000
0000
0000
F00F
F00F
F00F
F00F
F00F
F00F
F00F
F00F
F00F
F00F
F00F
F00F
F00F
F00F
F01F
F83F
7C7F
7FFF
3FEF
0F8F
ENDCHAR
STARTCHAR C0253
ENCODING 253
SWIDTH 445 0
DWIDTH 19 0
BBX 18 37 1 -7
BITMAP
001E00
001E00
003C00
003800
007000
00F000
00E000
000000
000000
000000
E003C0
F003C0
F00380
700780
780700
780700
3C0F00
3C0E00
1C1E00
1E1E00
1E1C00
0E3C00
0F3C00
0F3800
077800
07F000
03F000
03F000
03E000
01E000
01E000
01C000
03C000
038000
078000
078000
070000
ENDCHAR
STARTCHAR C0254
ENCODING 254
SWIDTH 539 0
DWIDTH 23 0
BBX 17 36 3 -7
BITMAP
F00000
F00000
F00000
F00000
F00000
F00000
F00000
F00000
F00000
F1F800
F3FC00
F7FE00
FE1F00
FC0F00
F80F00
F00780
F00780
F00780
F00780
F00780
F00780
F00780
F00780
F80F00
FC0F00
FE1F00
FFFE00
F7FC00
F1F000
F00000
F00000
F00000
F00000
F00000
F00000
F00000
ENDCHAR
STARTCHAR C0255
ENCODING 255
SWIDTH 445 0
DWIDTH 19 0
BBX 18 35 1 -7
BITMAP
1E1E00
1E1E00
1E1E00
1E1E00
000000
000000
000000
000000
E003C0
F003C0
F00380
700780
780700
780700
3C0F00
3C0E00
1C1E00
1E1E00
1E1C00
0E3C00
0F3C00
0F3800
077800
07F000
03F000
03F000
03E000
01E000
01E000
01C000
03C000
038000
078000
078000
070000
ENDCHAR
ENDFONT
